<svg xmlns="http://www.w3.org/2000/svg" width="1632" height="1632" viewBox="0 0 24 24"><path d="M489.13 316.6c22.18-3.76 44.26-8.56 66.8-9.52 42.06-2.5 84.18 4.94 124.04 18.08 54.69 17.83 105.41 45.38 157.54 69.26-28.21 23.31-61.75 38.83-95.4 52.54-31.09-19.28-62.14-39.16-96.27-52.74-34.97-14.18-73.28-19.82-110.87-16.69-20.61 1.49-40.68 6.62-60.93 10.41-72.06 14.3-144.11 28.68-216.17 43-12.24 2.57-24.41 5.89-35.8 11.17-12.06 5.33-22.41 13.69-32.37 22.19-15.18-16.29-17.92-40.82-12.25-61.67 1.25-3.58 1.57-7.88 4.66-10.46 9.92-9.58 21.83-16.86 34.19-22.85 12.24-5.87 25.52-9.19 38.8-11.71 78.02-13.63 156.02-27.35 234.03-41.01Z"/><path d="M854.85 406.93c6.67-1.73 13.74-.28 20.03 2.2 41.76 17.36 83.31 35.22 125.22 52.22-12.19.94-24.13 3.66-36.04 6.3C811.33 499.94 658.31 530.94 506 565.2c-13.18 3.53-27.04 4.7-39.64 10.2-11.37 5.12-21.13 13.3-29.2 22.71-10.53 12.21-18.42 26.47-24.89 41.17-9.6 22.21-15.76 45.8-19.37 69.69-5.75 38.14-5.17 77.67 5.07 115.02 3.22 10.85 7.85 21.2 12.23 31.62-36.21-35.38-73.3-69.84-109.94-104.77-21.13-19.1-35.25-44.95-43.09-72.11-6.09-21.31-9.03-43.6-7.88-65.76.97-20.01 5.01-40.05 13.44-58.29 5.68-12.19 13.17-23.7 23.07-32.89 13.02-12.22 29.57-20.72 47.18-23.85 13.21-2.49 26.73-1.69 40.06-.91 49.58 2.97 99.29 4.55 148.96 3.06 47.63-1.42 95.28-5.53 142.12-14.49 36.3-6.97 72.13-16.91 106.29-31.11 25.59-10.81 50.17-24.12 72.71-40.37 3.8-2.56 7.15-6.05 11.73-7.19M287.42 549.41c-9.3 15.05-14.43 32.34-16.77 49.79 35.63 27.49 72.57 53.24 108.52 80.31 5.09-35.96 20.49-70.67 45.05-97.57-35.96-20.31-72.26-39.99-108.39-59.98-11.81 6.27-21.43 16.13-28.41 27.45ZM148.41 446.86c2.03-12.66 7.44-24.67 15.15-34.88-1.84 12.55-3.21 25.63.36 38.01 5.18 17.33 17.63 31.41 31.76 42.23 19.21 14.72 41.03 25.5 62.39 36.7-2.43 7.93-7.85 14.47-10.84 22.17-15 34.68-16.25 73.88-9.53 110.66-14.23-14.92-28.61-29.7-42.58-44.86-11.97-13.08-24.22-26.04-34.2-40.76-7.27-10.44-12.76-22.2-15.24-34.71-2.67-13.31-2.22-26.98-1.66-40.46.88-18.07 1.44-36.22 4.39-54.1Z"/><path d="M1014.61 482.76c12.92-2.89 27.27-.38 37.82 7.82 10.14 8.19 16.48 20.13 20.47 32.34 6.17 19.68 7.75 40.52 7.38 61.05-1.12 35.56-8.47 70.89-21.15 104.12-7.48 19.51-17.25 38.32-30.42 54.61-9.9 12.29-22.14 23.25-37 29.06-148.72 52.52-297.84 105.14-451.52 141.45-15.92 4.48-33.07 5.91-49.2 1.65-13.58-3.47-25.63-11.59-35.12-21.77-10.9-11.71-18.54-26.07-24.12-40.97-7.35-19.41-11-40.02-12.95-60.62-3.55-40.27 1.25-81.24 13.76-119.66 6.57-19.2 15.45-37.95 28.72-53.47 8.22-9.34 17.72-18.21 29.57-22.61 10.75-4.13 22.23-5.68 33.35-8.48 163.1-36.59 326.92-69.81 490.41-104.52m-11.58 35.21c-157.14 34.89-314.96 66.8-471.67 103.63-7.98 2.09-15.68 5.47-22.18 10.61-16.47 12.42-26.72 31.09-34.31 49.87-7.7 20.31-13.07 41.66-14.29 63.39 5.84-24.45 16.1-48.2 32.18-67.69 10.38-12.5 23.94-23.18 40.03-26.92 159.8-35.82 319.57-71.77 479.34-107.73 7.78-1.89 15.89-3.7 23.91-2.17 6.34 1.09 11.93 4.43 17.94 6.54-4-10.92-11.1-21.37-21.69-26.76-8.91-4.84-19.57-4.88-29.26-2.77Z"/></svg>