<?xml version="1.0" encoding="UTF-8" ?>
<!DOCTYPE svg PUBLIC "-//W3C//DTD SVG 1.1//EN" "http://www.w3.org/Graphics/SVG/1.1/DTD/svg11.dtd">
<svg width="1250pt" height="834pt" viewBox="0 0 1250 834" version="1.1" xmlns="http://www.w3.org/2000/svg">
<g id="#e2d6c8ff">
<path fill="#e2d6c8" opacity="1.00" d=" M 0.00 0.00 L 114.33 0.00 C 115.81 2.61 116.40 6.22 119.40 7.60 C 123.97 9.85 129.25 9.19 134.15 8.84 C 134.95 4.74 137.67 1.51 141.56 0.00 L 585.28 0.00 C 587.83 1.02 590.27 2.48 593.03 2.91 C 597.36 3.09 601.71 2.14 606.03 2.94 C 611.31 3.81 616.66 3.86 622.00 3.69 C 631.02 3.36 639.91 5.37 648.92 5.51 C 655.98 5.66 663.04 5.95 670.09 6.30 C 686.09 6.81 702.12 5.70 718.09 7.07 C 734.24 8.32 749.74 13.88 765.95 14.65 C 771.41 14.85 776.78 15.82 782.11 17.01 C 788.22 18.42 794.77 16.72 800.66 19.29 C 809.03 23.03 818.49 21.87 827.13 24.69 C 834.27 26.50 841.61 27.27 848.89 28.33 C 853.92 29.05 858.84 30.37 863.83 31.33 C 871.81 32.85 879.98 32.93 887.99 34.26 C 893.27 35.14 898.60 35.77 903.97 35.73 C 913.05 35.68 922.05 36.97 931.09 37.61 C 941.95 38.43 952.79 39.54 963.65 40.46 C 975.58 41.30 987.09 45.09 999.07 45.63 C 1018.71 46.67 1038.35 47.97 1058.03 48.25 C 1075.06 48.47 1091.92 51.87 1108.98 51.41 C 1116.66 51.31 1124.35 51.43 1132.04 51.45 C 1140.05 51.49 1148.02 50.46 1156.01 49.91 C 1163.64 49.46 1171.21 47.47 1178.89 48.37 C 1189.40 49.56 1199.99 50.71 1210.13 53.89 C 1223.20 57.89 1237.04 58.70 1250.00 63.09 L 1250.00 164.95 C 1237.28 167.37 1224.63 170.12 1212.01 172.99 C 1191.20 178.62 1169.38 178.84 1148.02 177.07 C 1132.01 176.81 1115.98 177.12 1099.96 176.96 C 1088.90 176.72 1077.91 178.14 1066.86 178.19 C 1075.43 185.95 1083.86 193.87 1092.72 201.31 C 1097.16 205.04 1100.96 209.48 1104.08 214.36 C 1088.68 214.37 1073.39 211.91 1057.99 212.30 C 1047.93 212.08 1037.84 212.80 1027.83 211.57 C 1008.92 209.29 989.82 210.58 970.83 210.40 C 958.90 210.19 946.94 209.74 935.03 210.76 C 929.50 211.01 922.76 210.55 919.31 205.55 C 917.61 203.58 918.91 200.31 921.09 199.25 C 928.98 194.70 938.34 194.70 947.07 193.01 C 959.98 190.60 973.04 188.48 985.40 183.89 C 992.06 181.70 998.96 179.96 1006.02 179.95 C 1026.01 179.80 1046.13 181.09 1065.99 178.09 C 1057.67 171.69 1051.15 163.44 1044.73 155.25 C 1039.32 148.39 1033.08 142.26 1026.61 136.42 C 1020.77 131.17 1016.12 124.83 1011.20 118.77 C 998.60 103.13 980.91 93.05 965.43 80.65 C 958.62 74.94 949.15 76.40 940.98 76.90 C 936.20 77.06 931.82 79.07 927.49 80.88 C 922.85 82.61 918.22 84.42 913.90 86.85 C 898.93 95.14 882.28 100.22 868.19 110.11 C 854.02 119.31 839.79 128.74 824.00 134.99 C 816.62 138.20 809.17 141.28 802.07 145.09 C 795.90 148.38 791.35 153.89 785.43 157.53 C 778.42 161.96 770.71 165.17 763.78 169.73 C 757.45 173.67 751.91 178.76 745.46 182.53 C 735.65 188.41 725.41 193.60 715.98 200.10 C 702.61 209.26 688.76 217.71 674.70 225.77 C 666.90 230.20 659.64 235.51 651.68 239.66 C 637.73 247.03 624.15 255.12 609.86 261.83 C 599.94 266.44 591.08 272.94 582.14 279.16 C 574.37 284.60 565.87 288.85 557.68 293.61 C 550.75 297.56 544.51 302.56 537.71 306.70 C 531.03 311.22 523.50 314.20 516.67 318.46 C 507.89 315.03 498.57 313.38 489.59 310.62 C 479.78 307.76 471.22 301.49 461.00 299.89 C 453.98 298.74 445.64 296.57 439.58 301.55 C 436.22 304.19 432.42 306.16 428.35 307.45 C 422.45 309.29 417.90 313.63 412.57 316.57 C 406.11 320.21 399.15 322.91 392.83 326.80 C 386.85 330.43 381.41 334.89 375.23 338.20 C 372.22 339.82 369.15 341.36 366.34 343.33 C 354.69 351.92 340.78 356.69 328.81 364.78 C 324.19 368.02 319.10 370.52 313.75 372.33 C 309.19 368.19 304.79 363.88 300.08 359.91 C 290.26 351.39 278.48 345.64 268.09 337.91 C 260.69 332.35 252.50 328.01 244.41 323.56 C 238.82 320.43 232.48 319.05 226.74 316.25 C 215.18 310.65 202.78 307.08 191.01 301.98 C 183.14 298.58 174.36 296.15 165.78 297.93 C 159.82 299.14 153.82 300.23 148.01 302.06 C 141.04 304.15 135.37 309.13 128.35 311.13 C 121.47 313.04 114.89 315.91 107.99 317.75 C 99.94 319.24 92.09 321.61 84.41 324.41 C 71.90 329.22 60.50 336.68 47.59 340.50 C 43.49 341.71 39.46 343.36 36.05 345.99 C 27.60 352.45 18.42 358.41 7.82 360.47 C 5.22 361.09 2.62 361.71 0.00 362.23 L 0.00 181.94 C 10.00 181.46 20.01 181.83 30.01 181.86 C 54.51 181.48 78.79 177.98 103.04 174.82 C 121.10 172.47 138.65 166.21 157.00 166.35 C 175.11 165.17 193.19 163.36 211.06 160.07 C 227.68 156.79 244.56 155.18 261.40 153.43 C 274.60 152.62 287.82 151.96 301.05 151.93 C 315.76 151.69 330.28 148.65 345.01 148.98 C 351.68 149.01 358.34 149.01 365.01 149.00 C 378.77 148.97 392.41 150.94 406.09 152.15 C 415.39 152.95 424.59 154.75 433.94 154.96 C 443.63 155.23 453.27 156.39 462.96 156.60 C 479.68 156.20 496.57 156.56 513.05 153.18 C 521.59 151.36 530.31 150.30 538.64 147.60 C 545.63 145.24 552.95 144.11 560.02 142.03 C 572.66 138.35 585.94 138.99 598.93 138.21 C 624.51 135.99 650.23 135.26 675.67 131.58 C 684.07 130.35 692.61 130.96 701.03 129.91 C 717.94 127.81 735.00 129.07 751.99 128.72 C 762.44 128.47 773.16 131.62 783.41 128.43 C 787.69 127.02 792.38 124.37 793.51 119.65 C 794.51 115.03 791.11 110.71 787.10 108.84 C 780.23 105.58 772.44 105.24 764.98 104.64 C 755.97 104.17 747.03 102.65 737.99 102.59 C 728.34 102.48 718.65 103.05 709.03 102.00 C 700.98 101.10 692.99 102.72 684.98 103.14 C 670.34 104.10 655.70 106.71 641.00 105.32 C 628.01 104.04 614.94 105.14 601.95 103.90 C 593.86 103.09 585.69 102.90 577.68 101.41 C 563.90 98.87 550.08 96.40 536.12 95.18 C 524.79 93.23 513.27 92.68 502.01 90.26 C 486.78 87.86 471.35 86.96 455.99 85.70 C 445.21 84.64 434.38 87.46 423.66 85.42 C 413.04 83.29 402.35 86.64 391.68 85.37 C 377.46 83.65 363.07 85.62 348.88 83.37 C 331.24 82.11 313.95 78.23 296.36 76.56 C 279.04 75.22 262.17 70.80 244.95 68.71 C 236.67 67.76 228.61 65.53 220.33 64.59 C 207.85 63.24 195.66 59.55 183.02 59.64 C 172.32 59.79 161.66 58.92 150.98 58.55 C 127.59 58.62 104.33 61.60 80.97 62.35 C 71.64 62.26 62.31 62.37 52.97 62.53 C 43.92 62.74 35.03 60.58 25.99 60.57 C 17.28 60.58 8.63 59.56 0.00 58.47 L 0.00 0.00 Z" />
<path fill="#e2d6c8" opacity="1.00" d=" M 1117.00 212.75 C 1124.71 212.60 1132.31 210.91 1140.04 211.02 C 1149.51 211.03 1158.68 213.64 1168.01 214.93 C 1174.31 215.81 1180.64 216.49 1187.00 216.90 C 1196.38 217.59 1205.66 215.42 1215.04 215.59 C 1226.72 215.90 1238.32 213.85 1250.00 214.74 L 1250.00 329.08 C 1241.36 323.08 1232.54 317.31 1224.35 310.68 C 1219.92 307.12 1216.07 302.78 1211.01 300.07 C 1207.82 298.36 1204.69 296.38 1202.46 293.47 C 1198.26 288.38 1193.66 283.13 1187.30 280.80 C 1180.06 278.35 1172.50 277.06 1165.00 275.74 C 1162.07 275.25 1160.07 272.89 1158.15 270.87 C 1151.34 263.34 1144.67 255.63 1136.82 249.16 C 1127.89 241.80 1120.34 232.99 1112.17 224.85 C 1109.18 221.86 1106.65 218.45 1104.42 214.88 C 1108.46 213.46 1112.72 212.84 1117.00 212.75 Z" />
<path fill="#e2d6c8" opacity="1.00" d=" M 724.33 827.43 C 741.62 824.48 758.83 820.71 776.40 819.93 C 774.19 822.41 771.34 824.15 768.00 824.57 C 764.06 825.17 761.37 828.50 757.67 829.65 C 753.84 829.71 750.58 827.01 746.79 826.71 C 742.82 826.49 738.86 826.81 734.91 826.90 C 738.07 829.29 741.16 831.82 744.49 834.00 L 590.37 834.00 C 594.48 832.78 598.61 831.41 602.94 831.26 C 613.29 830.78 623.65 831.50 634.00 830.96 C 641.69 830.57 649.34 829.51 657.03 829.22 C 672.16 828.76 687.33 829.74 702.44 828.56 C 709.73 828.11 717.10 828.71 724.33 827.43 Z" />
</g>
<g id="#eee4dbff">
<path fill="#eee4db" opacity="1.00" d=" M 114.33 0.00 L 141.56 0.00 C 137.67 1.51 134.95 4.74 134.15 8.84 C 129.25 9.19 123.97 9.85 119.40 7.60 C 116.40 6.22 115.81 2.61 114.33 0.00 Z" />
<path fill="#eee4db" opacity="1.00" d=" M 0.00 456.35 C 4.63 459.96 9.73 462.95 14.13 466.87 C 17.89 470.21 22.05 473.03 26.32 475.67 C 30.43 478.19 32.36 482.93 36.18 485.81 C 40.48 489.13 44.46 492.85 47.86 497.10 C 49.94 499.87 52.84 501.85 56.08 503.03 C 63.78 505.74 67.17 514.42 74.84 517.21 C 77.75 518.19 79.67 520.58 81.28 523.06 C 84.87 524.08 88.81 524.70 91.71 527.27 C 95.78 530.89 98.56 535.79 103.04 538.98 C 111.35 544.97 120.05 550.42 128.09 556.79 C 134.10 561.68 141.94 566.20 149.94 563.90 C 162.42 560.42 173.04 552.44 185.35 548.54 C 189.11 547.40 192.74 545.88 196.32 544.29 C 201.96 541.68 208.85 542.87 213.97 538.99 C 221.70 533.21 229.92 528.13 238.27 523.30 C 244.46 519.69 250.69 516.10 257.30 513.30 C 266.22 509.50 275.68 506.97 284.19 502.25 C 290.92 498.48 297.88 495.15 304.90 491.95 C 311.39 488.99 318.53 487.92 325.09 485.15 C 332.31 482.22 338.95 477.95 344.70 472.69 C 348.07 469.55 351.86 466.89 355.89 464.66 C 369.73 476.64 383.37 488.85 396.91 501.18 C 403.61 506.71 409.07 513.57 416.00 518.84 C 422.17 523.64 427.47 529.51 433.94 533.93 C 438.66 537.29 444.96 536.16 449.91 533.95 C 457.02 530.84 461.51 524.19 467.52 519.56 C 479.93 509.72 491.89 499.32 503.64 488.69 C 508.30 484.60 510.26 478.19 515.45 474.60 C 519.45 471.85 523.07 468.10 527.87 466.85 C 533.92 468.93 539.31 472.70 544.43 476.48 C 551.30 482.99 557.68 490.16 565.66 495.37 C 568.62 497.34 571.95 498.85 574.44 501.46 C 576.90 504.09 579.04 507.24 582.54 508.61 C 587.92 510.89 592.46 514.58 597.31 517.76 C 601.47 520.50 604.71 524.44 609.04 526.95 C 615.22 530.48 620.87 534.96 627.57 537.52 C 633.51 539.77 638.36 543.95 643.66 547.33 C 660.51 557.11 678.03 565.76 696.12 573.02 C 705.65 576.30 715.09 579.98 723.74 585.22 C 731.19 589.61 739.08 593.19 746.74 597.18 C 752.10 599.96 758.71 600.45 763.15 604.85 C 764.89 606.39 766.60 608.21 769.00 608.66 C 772.84 609.55 776.74 610.58 780.00 612.91 C 784.97 615.91 788.33 621.17 793.89 623.26 C 801.46 626.11 807.91 631.08 814.94 634.98 C 822.89 640.38 831.51 644.66 839.95 649.23 C 846.81 652.89 854.37 654.83 861.66 657.44 C 875.85 663.49 890.35 670.01 905.97 671.01 C 916.42 672.09 927.13 672.11 937.37 669.47 C 943.72 667.81 950.42 666.65 955.94 662.87 C 959.57 660.37 963.48 658.30 967.61 656.74 C 977.04 653.22 983.68 645.19 992.41 640.44 C 999.26 636.13 1007.47 635.11 1014.76 631.79 C 1023.46 627.99 1031.15 622.34 1039.14 617.30 C 1047.17 612.76 1054.54 607.21 1062.28 602.21 C 1069.29 596.63 1077.40 592.74 1084.84 587.80 C 1093.72 582.13 1102.36 576.11 1110.79 569.80 C 1123.31 561.39 1136.76 554.33 1150.87 548.98 C 1159.35 545.72 1166.86 540.45 1173.95 534.86 C 1180.77 529.20 1188.97 525.60 1197.05 522.13 C 1205.74 519.17 1214.48 516.16 1222.43 511.48 C 1227.10 509.01 1231.43 505.21 1236.95 505.02 C 1241.30 504.77 1245.65 505.07 1250.00 505.20 L 1250.00 629.84 C 1245.00 631.19 1239.10 631.19 1235.32 635.21 C 1231.40 639.51 1228.25 644.42 1224.63 648.96 C 1226.61 650.14 1228.50 651.80 1230.92 652.03 C 1237.25 652.71 1243.64 652.19 1250.00 652.31 L 1250.00 678.88 C 1232.05 683.88 1213.80 687.72 1195.97 693.16 C 1175.14 699.38 1154.88 707.36 1134.87 715.83 C 1118.21 723.14 1101.32 729.93 1085.00 737.98 C 1068.14 746.62 1050.96 754.61 1033.93 762.92 C 1015.47 771.84 998.38 783.22 980.77 793.65 C 966.28 794.41 951.96 796.93 937.52 798.26 C 927.68 798.71 917.87 799.94 908.00 799.51 C 898.58 799.17 889.47 802.05 880.11 802.56 C 867.88 803.32 856.01 806.51 843.92 808.26 C 833.23 809.79 822.82 812.95 812.02 813.65 C 805.41 813.97 799.60 817.82 792.98 818.04 C 787.42 818.36 781.91 819.19 776.40 819.93 C 758.83 820.71 741.62 824.48 724.33 827.43 C 717.10 828.71 709.73 828.11 702.44 828.56 C 687.33 829.74 672.16 828.76 657.03 829.22 C 649.34 829.51 641.69 830.57 634.00 830.96 C 623.65 831.50 613.29 830.78 602.94 831.26 C 598.61 831.41 594.48 832.78 590.37 834.00 L 585.99 834.00 C 581.50 828.81 576.49 824.07 572.46 818.50 C 570.02 815.01 567.30 811.47 563.29 809.72 C 554.44 805.23 544.24 806.84 534.84 804.58 C 524.51 804.11 514.33 801.59 503.96 802.17 C 495.81 802.51 487.69 801.47 479.60 800.65 C 472.76 799.87 465.97 798.09 459.03 798.64 C 449.45 799.33 440.19 796.35 430.99 794.19 C 425.50 792.81 419.87 792.04 414.42 790.51 C 405.94 788.21 398.77 782.48 390.04 780.91 C 380.73 779.15 371.53 776.44 362.00 776.23 C 356.58 776.12 351.33 774.69 346.35 772.64 C 338.97 769.63 330.92 768.62 323.69 765.24 C 320.17 763.62 317.64 760.56 315.41 757.49 C 326.82 755.09 338.49 754.48 350.00 752.76 C 355.62 751.95 361.31 752.00 366.97 752.08 C 372.98 752.17 378.96 751.36 384.97 751.14 C 394.97 750.81 404.99 751.47 414.99 751.15 C 419.99 751.15 424.31 748.26 429.14 747.49 C 432.90 747.46 436.41 749.10 440.02 749.96 C 448.19 752.24 456.71 750.68 464.96 749.71 C 472.40 748.72 479.96 749.48 487.40 748.42 C 496.15 747.20 504.84 745.29 513.70 745.04 C 515.65 748.69 517.88 752.17 520.37 755.48 C 523.04 751.97 524.82 747.89 527.34 744.29 C 530.06 741.53 534.32 741.52 537.93 741.06 C 552.00 740.24 565.85 737.46 579.62 734.61 C 595.24 731.89 611.15 731.93 626.95 732.08 C 636.32 732.29 645.63 730.64 655.00 731.11 C 675.00 732.01 694.95 735.40 715.00 733.71 C 725.55 732.51 736.11 735.25 746.65 733.58 C 758.62 731.79 770.92 732.62 782.70 729.55 C 786.71 728.58 790.62 726.35 792.69 722.66 C 794.63 719.49 794.90 714.81 791.85 712.23 C 784.98 705.86 774.84 705.33 766.00 706.27 C 758.04 707.30 750.01 707.26 742.01 706.94 C 733.27 706.50 724.58 708.39 715.86 707.47 C 707.60 706.69 699.33 705.79 691.02 705.77 C 678.67 705.61 666.61 702.64 654.35 701.51 C 634.20 700.06 613.95 699.74 593.86 697.38 C 585.93 696.65 577.90 697.38 570.01 696.09 C 556.71 693.82 543.83 689.65 530.81 686.24 C 518.55 683.67 506.16 681.65 493.69 680.43 C 487.09 679.85 480.45 679.94 473.86 679.38 C 456.86 677.81 440.04 682.06 423.06 681.94 C 416.56 681.72 410.54 684.98 403.98 684.36 C 385.04 686.06 366.07 689.12 346.99 687.87 C 338.31 686.92 329.59 686.28 320.92 685.26 C 309.06 683.95 296.83 686.64 285.29 682.81 C 283.22 681.85 281.50 683.21 280.02 684.51 C 274.43 674.71 272.83 663.29 267.78 653.25 C 262.26 641.14 254.02 630.58 245.52 620.45 C 241.58 615.98 236.15 613.19 232.09 608.85 C 229.11 605.77 226.02 602.54 221.88 601.08 C 216.36 599.10 210.48 598.45 204.77 597.23 C 196.68 595.49 188.35 596.40 180.17 595.47 C 172.96 594.60 165.77 596.70 158.56 595.69 C 151.37 594.73 144.07 595.37 136.92 594.05 C 131.29 592.96 125.46 593.53 119.88 592.19 C 109.98 589.04 100.95 583.57 92.95 577.00 C 90.24 574.64 86.63 573.88 83.14 574.50 C 77.59 575.19 71.98 575.10 66.43 574.39 C 57.96 573.33 49.50 574.94 41.03 574.97 C 35.01 574.74 30.00 579.03 24.02 578.98 C 16.01 578.98 7.98 579.32 0.00 578.60 L 0.00 456.35 M 475.27 551.12 C 475.08 555.82 478.30 559.39 480.65 563.10 C 479.40 564.77 478.15 566.44 476.89 568.11 C 474.22 568.84 472.33 571.20 469.84 572.37 C 468.40 571.88 467.03 571.20 465.59 570.73 C 468.31 567.76 470.08 564.12 471.15 560.27 C 470.15 558.50 469.57 555.82 467.05 555.85 C 463.41 555.32 457.71 554.81 456.31 559.21 C 455.14 562.52 457.30 565.63 459.41 567.98 C 459.25 568.39 458.93 569.20 458.76 569.60 C 457.37 571.58 455.23 573.34 455.10 575.93 C 454.53 580.62 454.80 585.35 454.81 590.07 C 443.17 589.73 431.57 590.46 419.96 591.04 C 411.59 591.66 403.38 589.66 395.07 589.30 C 391.22 589.06 388.80 594.76 391.87 597.25 C 396.42 600.72 402.38 601.40 407.90 601.94 C 415.58 602.37 423.27 602.78 430.95 603.33 C 442.95 604.35 454.95 602.88 466.93 602.46 C 476.29 603.21 485.66 604.36 495.07 603.96 C 508.74 603.12 522.56 603.04 535.99 600.04 C 543.88 599.12 551.69 597.69 559.51 596.32 C 566.71 594.84 573.88 591.18 577.86 584.77 C 580.38 580.88 579.61 576.02 579.76 571.63 C 577.27 571.89 574.71 572.12 572.59 573.59 C 566.02 577.43 558.93 580.36 551.40 581.61 C 545.63 583.52 539.64 584.30 533.65 585.09 C 533.07 583.94 532.20 583.32 531.04 583.23 C 519.35 582.59 507.54 582.36 496.04 579.88 C 492.29 579.07 488.43 578.88 484.60 578.91 C 483.82 574.27 483.36 569.52 481.77 565.08 C 481.75 558.16 483.47 550.80 480.90 544.18 C 476.99 543.10 474.48 547.78 475.27 551.12 M 1136.97 578.55 C 1128.78 579.45 1120.72 581.62 1113.27 585.12 C 1105.42 589.29 1098.44 594.88 1090.73 599.29 C 1089.60 603.70 1082.01 602.64 1082.94 607.90 C 1086.60 611.53 1092.12 611.48 1096.92 611.30 C 1107.98 610.91 1119.12 612.19 1130.12 610.63 C 1136.73 610.03 1143.37 610.41 1150.00 610.30 C 1161.32 610.46 1172.65 610.03 1183.96 610.68 C 1192.90 611.06 1202.19 611.61 1210.82 608.78 C 1213.83 607.98 1214.64 603.68 1212.15 601.81 C 1207.68 598.18 1201.49 597.72 1197.00 594.09 C 1191.94 589.89 1186.10 586.79 1180.32 583.72 C 1172.52 579.70 1163.66 578.82 1155.14 577.35 C 1149.05 576.25 1142.94 577.41 1136.97 578.55 Z" />
</g>
<g id="#dcbb9aff">
<path fill="#dcbb9a" opacity="1.00" d=" M 585.28 0.00 L 1250.00 0.00 L 1250.00 63.09 C 1237.04 58.70 1223.20 57.89 1210.13 53.89 C 1199.99 50.71 1189.40 49.56 1178.89 48.37 C 1171.21 47.47 1163.64 49.46 1156.01 49.91 C 1148.02 50.46 1140.05 51.49 1132.04 51.45 C 1124.35 51.43 1116.66 51.31 1108.98 51.41 C 1091.92 51.87 1075.06 48.47 1058.03 48.25 C 1038.35 47.97 1018.71 46.67 999.07 45.63 C 987.09 45.09 975.58 41.30 963.65 40.46 C 952.79 39.54 941.95 38.43 931.09 37.61 C 922.05 36.97 913.05 35.68 903.97 35.73 C 898.60 35.77 893.27 35.14 887.99 34.26 C 879.98 32.93 871.81 32.85 863.83 31.33 C 858.84 30.37 853.92 29.05 848.89 28.33 C 841.61 27.27 834.27 26.50 827.13 24.69 C 818.49 21.87 809.03 23.03 800.66 19.29 C 794.77 16.72 788.22 18.42 782.11 17.01 C 776.78 15.82 771.41 14.85 765.95 14.65 C 749.74 13.88 734.24 8.32 718.09 7.07 C 702.12 5.70 686.09 6.81 670.09 6.30 C 663.04 5.95 655.98 5.66 648.92 5.51 C 639.91 5.37 631.02 3.36 622.00 3.69 C 616.66 3.86 611.31 3.81 606.03 2.94 C 601.71 2.14 597.36 3.09 593.03 2.91 C 590.27 2.48 587.83 1.02 585.28 0.00 Z" />
<path fill="#dcbb9a" opacity="1.00" d=" M 198.04 315.05 C 201.01 313.49 198.18 318.38 198.04 315.05 Z" />
<path fill="#dcbb9a" opacity="1.00" d=" M 363.00 420.30 C 372.72 420.53 382.46 420.28 392.04 418.48 C 405.01 417.97 418.01 418.37 430.99 418.28 C 444.32 418.43 457.67 417.76 470.96 418.99 C 489.31 419.33 507.66 419.28 526.01 419.24 C 532.37 419.17 538.66 420.35 545.03 420.28 C 555.67 420.23 566.31 420.28 576.95 420.26 C 592.98 420.48 609.06 419.62 625.04 421.16 C 644.00 421.57 662.98 420.83 681.94 421.65 C 694.61 421.66 707.27 422.30 719.95 422.17 C 735.95 422.58 751.99 421.63 767.96 422.97 C 793.63 423.81 819.35 422.22 845.00 424.06 C 870.65 424.75 896.34 423.50 921.98 424.96 C 948.30 425.87 974.67 424.35 1000.97 426.06 C 1021.96 426.69 1042.99 425.68 1063.97 426.83 C 1075.42 427.57 1086.89 427.11 1098.35 427.27 C 1113.24 427.44 1128.14 427.04 1143.02 427.45 C 1153.65 428.58 1164.34 428.16 1175.01 428.29 C 1187.69 428.28 1200.36 428.31 1213.04 428.27 C 1225.58 428.03 1238.03 430.49 1250.00 434.04 L 1250.00 467.96 C 1238.82 466.29 1227.70 464.28 1216.53 462.61 C 1208.82 461.55 1202.53 456.72 1195.69 453.47 C 1186.55 448.91 1176.27 444.99 1165.91 447.15 C 1154.92 448.40 1146.13 455.56 1136.79 460.78 C 1128.94 465.84 1119.62 469.12 1113.71 476.70 C 1110.06 481.44 1105.52 485.67 1103.05 491.20 C 1101.23 495.04 1102.52 500.93 1107.44 501.34 C 1121.96 502.13 1136.51 502.84 1151.04 503.54 C 1158.78 503.12 1166.32 506.15 1174.06 505.03 C 1183.00 503.94 1192.02 504.81 1200.99 504.31 C 1217.30 503.12 1233.68 503.65 1250.00 503.36 L 1250.00 505.20 C 1245.65 505.07 1241.30 504.77 1236.95 505.02 C 1231.43 505.21 1227.10 509.01 1222.43 511.48 C 1214.48 516.16 1205.74 519.17 1197.05 522.13 C 1188.97 525.60 1180.77 529.20 1173.95 534.86 C 1166.86 540.45 1159.35 545.72 1150.87 548.98 C 1136.76 554.33 1123.31 561.39 1110.79 569.80 C 1102.36 576.11 1093.72 582.13 1084.84 587.80 C 1077.40 592.74 1069.29 596.63 1062.28 602.21 C 1054.54 607.21 1047.17 612.76 1039.14 617.30 C 1031.15 622.34 1023.46 627.99 1014.76 631.79 C 1007.47 635.11 999.26 636.13 992.41 640.44 C 983.68 645.19 977.04 653.22 967.61 656.74 C 963.48 658.30 959.57 660.37 955.94 662.87 C 950.42 666.65 943.72 667.81 937.37 669.47 C 927.13 672.11 916.42 672.09 905.97 671.01 C 890.35 670.01 875.85 663.49 861.66 657.44 C 854.37 654.83 846.81 652.89 839.95 649.23 C 831.51 644.66 822.89 640.38 814.94 634.98 C 807.91 631.08 801.46 626.11 793.89 623.26 C 788.33 621.17 784.97 615.91 780.00 612.91 C 776.74 610.58 772.84 609.55 769.00 608.66 C 766.60 608.21 764.89 606.39 763.15 604.85 C 758.71 600.45 752.10 599.96 746.74 597.18 C 739.08 593.19 731.19 589.61 723.74 585.22 C 715.09 579.98 705.65 576.30 696.12 573.02 C 678.03 565.76 660.51 557.11 643.66 547.33 C 638.36 543.95 633.51 539.77 627.57 537.52 C 620.87 534.96 615.22 530.48 609.04 526.95 C 604.71 524.44 601.47 520.50 597.31 517.76 C 592.46 514.58 587.92 510.89 582.54 508.61 C 579.04 507.24 576.90 504.09 574.44 501.46 C 571.95 498.85 568.62 497.34 565.66 495.37 C 557.68 490.16 551.30 482.99 544.43 476.48 C 539.31 472.70 533.92 468.93 527.87 466.85 C 523.07 468.10 519.45 471.85 515.45 474.60 C 510.26 478.19 508.30 484.60 503.64 488.69 C 491.89 499.32 479.93 509.72 467.52 519.56 C 461.51 524.19 457.02 530.84 449.91 533.95 C 444.96 536.16 438.66 537.29 433.94 533.93 C 427.47 529.51 422.17 523.64 416.00 518.84 C 409.07 513.57 403.61 506.71 396.91 501.18 C 383.37 488.85 369.73 476.64 355.89 464.66 C 351.86 466.89 348.07 469.55 344.70 472.69 C 338.95 477.95 332.31 482.22 325.09 485.15 C 318.53 487.92 311.39 488.99 304.90 491.95 C 297.88 495.15 290.92 498.48 284.19 502.25 C 275.68 506.97 266.22 509.50 257.30 513.30 C 250.69 516.10 244.46 519.69 238.27 523.30 C 229.92 528.13 221.70 533.21 213.97 538.99 C 208.85 542.87 201.96 541.68 196.32 544.29 C 192.74 545.88 189.11 547.40 185.35 548.54 C 173.04 552.44 162.42 560.42 149.94 563.90 C 141.94 566.20 134.10 561.68 128.09 556.79 C 120.05 550.42 111.35 544.97 103.04 538.98 C 98.56 535.79 95.78 530.89 91.71 527.27 C 88.81 524.70 84.87 524.08 81.28 523.06 C 79.67 520.58 77.75 518.19 74.84 517.21 C 67.17 514.42 63.78 505.74 56.08 503.03 C 52.84 501.85 49.94 499.87 47.86 497.10 C 44.46 492.85 40.48 489.13 36.18 485.81 C 32.36 482.93 30.43 478.19 26.32 475.67 C 22.05 473.03 17.89 470.21 14.13 466.87 C 9.73 462.95 4.63 459.96 0.00 456.35 L 0.00 425.31 C 17.12 424.99 34.28 425.95 51.36 424.42 C 73.58 424.09 95.82 424.32 118.05 424.04 C 132.03 423.56 146.03 422.77 160.03 423.24 C 166.33 423.42 172.63 423.24 178.94 423.12 C 187.64 422.95 196.37 423.42 205.05 422.65 C 211.36 422.08 217.70 422.27 224.03 422.29 C 240.02 422.18 256.00 422.33 271.99 422.31 C 278.36 422.29 284.67 421.18 291.05 421.30 C 306.05 421.35 321.05 421.29 336.04 421.22 C 345.05 421.69 354.00 420.30 363.00 420.30 Z" />
<path fill="#dcbb9a" opacity="1.00" d=" M 462.86 562.00 C 465.41 560.73 468.38 560.75 471.15 560.27 C 470.08 564.12 468.31 567.76 465.59 570.73 C 463.34 570.17 461.04 569.91 458.76 569.60 C 458.93 569.20 459.25 568.39 459.41 567.98 C 460.38 565.91 461.12 563.57 462.86 562.00 Z" />
<path fill="#dcbb9a" opacity="1.00" d=" M 480.65 563.10 C 480.93 563.60 481.49 564.58 481.77 565.08 C 483.36 569.52 483.82 574.27 484.60 578.91 C 485.08 582.44 485.60 585.98 486.23 589.50 C 484.98 589.57 483.75 589.64 482.52 589.71 C 481.74 588.85 480.93 588.02 480.10 587.23 C 481.19 586.97 482.24 586.59 483.25 586.10 C 482.69 581.75 481.79 577.46 480.97 573.16 C 480.77 571.82 480.54 570.48 480.38 569.16 C 479.22 568.79 478.05 568.44 476.89 568.11 C 478.15 566.44 479.40 564.77 480.65 563.10 Z" />
<path fill="#dcbb9a" opacity="1.00" d=" M 1136.97 578.55 C 1142.94 577.41 1149.05 576.25 1155.14 577.35 C 1163.66 578.82 1172.52 579.70 1180.32 583.72 C 1186.10 586.79 1191.94 589.89 1197.00 594.09 C 1201.49 597.72 1207.68 598.18 1212.15 601.81 C 1214.64 603.68 1213.83 607.98 1210.82 608.78 C 1202.19 611.61 1192.90 611.06 1183.96 610.68 C 1172.65 610.03 1161.32 610.46 1150.00 610.30 C 1143.37 610.41 1136.73 610.03 1130.12 610.63 C 1119.12 612.19 1107.98 610.91 1096.92 611.30 C 1092.12 611.48 1086.60 611.53 1082.94 607.90 C 1082.01 602.64 1089.60 603.70 1090.73 599.29 C 1098.44 594.88 1105.42 589.29 1113.27 585.12 C 1120.72 581.62 1128.78 579.45 1136.97 578.55 Z" />
<path fill="#dcbb9a" opacity="1.00" d=" M 1235.32 635.21 C 1239.10 631.19 1245.00 631.19 1250.00 629.84 L 1250.00 652.31 C 1243.64 652.19 1237.25 652.71 1230.92 652.03 C 1228.50 651.80 1226.61 650.14 1224.63 648.96 C 1228.25 644.42 1231.40 639.51 1235.32 635.21 Z" />
<path fill="#dcbb9a" opacity="1.00" d=" M 937.52 798.26 C 951.96 796.93 966.28 794.41 980.77 793.65 C 975.54 797.54 969.92 800.85 964.57 804.56 C 957.42 809.50 949.58 813.38 942.67 818.66 C 935.71 824.06 928.01 828.43 921.17 834.00 L 744.49 834.00 C 741.16 831.82 738.07 829.29 734.91 826.90 C 738.86 826.81 742.82 826.49 746.79 826.71 C 750.58 827.01 753.84 829.71 757.67 829.65 C 761.37 828.50 764.06 825.17 768.00 824.57 C 771.34 824.15 774.19 822.41 776.40 819.93 C 781.91 819.19 787.42 818.36 792.98 818.04 C 799.60 817.82 805.41 813.97 812.02 813.65 C 822.82 812.95 833.23 809.79 843.92 808.26 C 856.01 806.51 867.88 803.32 880.11 802.56 C 889.47 802.05 898.58 799.17 908.00 799.51 C 917.87 799.94 927.68 798.71 937.52 798.26 Z" />
</g>
<g id="#f8f0e5ff">
<path fill="#f8f0e5" opacity="1.00" d=" M 0.00 58.47 C 8.63 59.56 17.28 60.58 25.99 60.57 C 35.03 60.58 43.92 62.74 52.97 62.53 C 62.31 62.37 71.64 62.26 80.97 62.35 C 104.33 61.60 127.59 58.62 150.98 58.55 C 161.66 58.92 172.32 59.79 183.02 59.64 C 195.66 59.55 207.85 63.24 220.33 64.59 C 228.61 65.53 236.67 67.76 244.95 68.71 C 262.17 70.80 279.04 75.22 296.36 76.56 C 313.95 78.23 331.24 82.11 348.88 83.37 C 363.07 85.62 377.46 83.65 391.68 85.37 C 402.35 86.64 413.04 83.29 423.66 85.42 C 434.38 87.46 445.21 84.64 455.99 85.70 C 471.35 86.96 486.78 87.86 502.01 90.26 C 513.27 92.68 524.79 93.23 536.12 95.18 C 550.08 96.40 563.90 98.87 577.68 101.41 C 585.69 102.90 593.86 103.09 601.95 103.90 C 614.94 105.14 628.01 104.04 641.00 105.32 C 655.70 106.71 670.34 104.10 684.98 103.14 C 692.99 102.72 700.98 101.10 709.03 102.00 C 718.65 103.05 728.34 102.48 737.99 102.59 C 747.03 102.65 755.97 104.17 764.98 104.64 C 772.44 105.24 780.23 105.58 787.10 108.84 C 791.11 110.71 794.51 115.03 793.51 119.65 C 792.38 124.37 787.69 127.02 783.41 128.43 C 773.16 131.62 762.44 128.47 751.99 128.72 C 735.00 129.07 717.94 127.81 701.03 129.91 C 692.61 130.96 684.07 130.35 675.67 131.58 C 650.23 135.26 624.51 135.99 598.93 138.21 C 585.94 138.99 572.66 138.35 560.02 142.03 C 552.95 144.11 545.63 145.24 538.64 147.60 C 530.31 150.30 521.59 151.36 513.05 153.18 C 496.57 156.56 479.68 156.20 462.96 156.60 C 453.27 156.39 443.63 155.23 433.94 154.96 C 424.59 154.75 415.39 152.95 406.09 152.15 C 392.41 150.94 378.77 148.97 365.01 149.00 C 358.34 149.01 351.68 149.01 345.01 148.98 C 330.28 148.65 315.76 151.69 301.05 151.93 C 287.82 151.96 274.60 152.62 261.40 153.43 C 244.56 155.18 227.68 156.79 211.06 160.07 C 193.19 163.36 175.11 165.17 157.00 166.35 C 138.65 166.21 121.10 172.47 103.04 174.82 C 78.79 177.98 54.51 181.48 30.01 181.86 C 20.01 181.83 10.00 181.46 0.00 181.94 L 0.00 58.47 Z" />
<path fill="#f8f0e5" opacity="1.00" d=" M 480.97 573.16 C 481.79 577.46 482.69 581.75 483.25 586.10 C 482.24 586.59 481.19 586.97 480.10 587.23 C 478.19 587.23 476.17 587.32 474.41 586.48 C 473.11 585.24 472.63 583.39 471.82 581.84 C 475.09 579.19 478.19 576.33 480.97 573.16 Z" />
<path fill="#f8f0e5" opacity="1.00" d=" M 423.06 681.94 C 440.04 682.06 456.86 677.81 473.86 679.38 C 480.45 679.94 487.09 679.85 493.69 680.43 C 506.16 681.65 518.55 683.67 530.81 686.24 C 543.83 689.65 556.71 693.82 570.01 696.09 C 577.90 697.38 585.93 696.65 593.86 697.38 C 613.95 699.74 634.20 700.06 654.35 701.51 C 666.61 702.64 678.67 705.61 691.02 705.77 C 699.33 705.79 707.60 706.69 715.86 707.47 C 724.58 708.39 733.27 706.50 742.01 706.94 C 750.01 707.26 758.04 707.30 766.00 706.27 C 774.84 705.33 784.98 705.86 791.85 712.23 C 794.90 714.81 794.63 719.49 792.69 722.66 C 790.62 726.35 786.71 728.58 782.70 729.55 C 770.92 732.62 758.62 731.79 746.65 733.58 C 736.11 735.25 725.55 732.51 715.00 733.71 C 694.95 735.40 675.00 732.01 655.00 731.11 C 645.63 730.64 636.32 732.29 626.95 732.08 C 611.15 731.93 595.24 731.89 579.62 734.61 C 565.85 737.46 552.00 740.24 537.93 741.06 C 534.32 741.52 530.06 741.53 527.34 744.29 C 524.82 747.89 523.04 751.97 520.37 755.48 C 517.88 752.17 515.65 748.69 513.70 745.04 C 504.84 745.29 496.15 747.20 487.40 748.42 C 479.96 749.48 472.40 748.72 464.96 749.71 C 456.71 750.68 448.19 752.24 440.02 749.96 C 436.41 749.10 432.90 747.46 429.14 747.49 C 424.31 748.26 419.99 751.15 414.99 751.15 C 404.99 751.47 394.97 750.81 384.97 751.14 C 378.96 751.36 372.98 752.17 366.97 752.08 C 361.31 752.00 355.62 751.95 350.00 752.76 C 338.49 754.48 326.82 755.09 315.41 757.49 C 299.08 735.50 294.06 707.74 280.02 684.51 C 281.50 683.21 283.22 681.85 285.29 682.81 C 296.83 686.64 309.06 683.95 320.92 685.26 C 329.59 686.28 338.31 686.92 346.99 687.87 C 366.07 689.12 385.04 686.06 403.98 684.36 C 410.54 684.98 416.56 681.72 423.06 681.94 Z" />
</g>
<g id="#c28f58ff">
<path fill="#c28f58" opacity="1.00" d=" M 927.49 80.88 C 931.82 79.07 936.20 77.06 940.98 76.90 C 949.15 76.40 958.62 74.94 965.43 80.65 C 980.91 93.05 998.60 103.13 1011.20 118.77 C 1016.12 124.83 1020.77 131.17 1026.61 136.42 C 1033.08 142.26 1039.32 148.39 1044.73 155.25 C 1051.15 163.44 1057.67 171.69 1065.99 178.09 C 1046.13 181.09 1026.01 179.80 1006.02 179.95 C 998.96 179.96 992.06 181.70 985.40 183.89 C 982.67 177.73 979.82 171.62 977.74 165.21 C 975.49 159.21 972.53 153.49 970.65 147.35 C 968.99 142.33 966.37 137.71 963.90 133.07 C 958.70 123.16 956.14 112.09 950.61 102.34 C 947.99 97.78 945.53 93.01 941.87 89.18 C 937.96 85.10 932.56 83.08 927.49 80.88 Z" />
<path fill="#c28f58" opacity="1.00" d=" M 970.83 210.40 C 989.82 210.58 1008.92 209.29 1027.83 211.57 C 1037.84 212.80 1047.93 212.08 1057.99 212.30 C 1073.39 211.91 1088.68 214.37 1104.08 214.36 C 1104.17 214.49 1104.34 214.75 1104.42 214.88 C 1106.65 218.45 1109.18 221.86 1112.17 224.85 C 1120.34 232.99 1127.89 241.80 1136.82 249.16 C 1144.67 255.63 1151.34 263.34 1158.15 270.87 C 1160.07 272.89 1162.07 275.25 1165.00 275.74 C 1172.50 277.06 1180.06 278.35 1187.30 280.80 C 1193.66 283.13 1198.26 288.38 1202.46 293.47 C 1204.69 296.38 1207.82 298.36 1211.01 300.07 C 1216.07 302.78 1219.92 307.12 1224.35 310.68 C 1232.54 317.31 1241.36 323.08 1250.00 329.08 L 1250.00 434.04 C 1238.03 430.49 1225.58 428.03 1213.04 428.27 C 1200.36 428.31 1187.69 428.28 1175.01 428.29 C 1164.34 428.16 1153.65 428.58 1143.02 427.45 C 1128.14 427.04 1113.24 427.44 1098.35 427.27 C 1100.53 423.91 1101.33 419.91 1100.02 416.06 C 1096.79 405.39 1099.86 393.54 1094.66 383.38 C 1091.01 376.47 1087.73 369.36 1084.91 362.07 C 1082.62 356.06 1081.74 349.63 1079.48 343.60 C 1077.04 337.06 1075.77 330.19 1074.58 323.34 C 1073.56 317.15 1071.46 311.18 1070.90 304.91 C 1070.48 301.09 1070.32 297.07 1068.37 293.66 C 1065.09 287.88 1061.16 282.30 1055.78 278.30 C 1050.55 274.52 1046.69 269.30 1042.13 264.83 C 1037.08 259.98 1034.00 253.60 1030.40 247.71 C 1026.52 240.56 1021.26 234.19 1015.07 228.92 C 1009.85 224.57 1007.32 218.03 1002.78 213.11 C 1000.57 210.70 996.95 211.14 994.02 210.87 C 986.28 210.85 978.54 211.16 970.83 210.40 Z" />
<path fill="#c28f58" opacity="1.00" d=" M 475.27 551.12 C 474.48 547.78 476.99 543.10 480.90 544.18 C 483.47 550.80 481.75 558.16 481.77 565.08 C 481.49 564.58 480.93 563.60 480.65 563.10 C 478.30 559.39 475.08 555.82 475.27 551.12 Z" />
<path fill="#c28f58" opacity="1.00" d=" M 41.03 574.97 C 49.50 574.94 57.96 573.33 66.43 574.39 C 71.98 575.10 77.59 575.19 83.14 574.50 C 86.63 573.88 90.24 574.64 92.95 577.00 C 100.95 583.57 109.98 589.04 119.88 592.19 C 125.46 593.53 131.29 592.96 136.92 594.05 C 144.07 595.37 151.37 594.73 158.56 595.69 C 165.77 596.70 172.96 594.60 180.17 595.47 C 188.35 596.40 196.68 595.49 204.77 597.23 C 210.48 598.45 216.36 599.10 221.88 601.08 C 226.02 602.54 229.11 605.77 232.09 608.85 C 236.15 613.19 241.58 615.98 245.52 620.45 C 254.02 630.58 262.26 641.14 267.78 653.25 C 272.83 663.29 274.43 674.71 280.02 684.51 C 294.06 707.74 299.08 735.50 315.41 757.49 C 317.64 760.56 320.17 763.62 323.69 765.24 C 330.92 768.62 338.97 769.63 346.35 772.64 C 351.33 774.69 356.58 776.12 362.00 776.23 C 371.53 776.44 380.73 779.15 390.04 780.91 C 398.77 782.48 405.94 788.21 414.42 790.51 C 419.87 792.04 425.50 792.81 430.99 794.19 C 440.19 796.35 449.45 799.33 459.03 798.64 C 465.97 798.09 472.76 799.87 479.60 800.65 C 487.69 801.47 495.81 802.51 503.96 802.17 C 514.33 801.59 524.51 804.11 534.84 804.58 C 544.24 806.84 554.44 805.23 563.29 809.72 C 567.30 811.47 570.02 815.01 572.46 818.50 C 576.49 824.07 581.50 828.81 585.99 834.00 L 0.00 834.00 L 0.00 578.60 C 7.98 579.32 16.01 578.98 24.02 578.98 C 30.00 579.03 35.01 574.74 41.03 574.97 Z" />
<path fill="#c28f58" opacity="1.00" d=" M 1195.97 693.16 C 1213.80 687.72 1232.05 683.88 1250.00 678.88 L 1250.00 834.00 L 921.17 834.00 C 928.01 828.43 935.71 824.06 942.67 818.66 C 949.58 813.38 957.42 809.50 964.57 804.56 C 969.92 800.85 975.54 797.54 980.77 793.65 C 998.38 783.22 1015.47 771.84 1033.93 762.92 C 1050.96 754.61 1068.14 746.62 1085.00 737.98 C 1101.32 729.93 1118.21 723.14 1134.87 715.83 C 1154.88 707.36 1175.14 699.38 1195.97 693.16 Z" />
</g>
<g id="#a06d38ff">
<path fill="#a06d38" opacity="1.00" d=" M 913.90 86.85 C 918.22 84.42 922.85 82.61 927.49 80.88 C 932.56 83.08 937.96 85.10 941.87 89.18 C 945.53 93.01 947.99 97.78 950.61 102.34 C 956.14 112.09 958.70 123.16 963.90 133.07 C 966.37 137.71 968.99 142.33 970.65 147.35 C 972.53 153.49 975.49 159.21 977.74 165.21 C 979.82 171.62 982.67 177.73 985.40 183.89 C 973.04 188.48 959.98 190.60 947.07 193.01 C 938.34 194.70 928.98 194.70 921.09 199.25 C 918.91 200.31 917.61 203.58 919.31 205.55 C 922.76 210.55 929.50 211.01 935.03 210.76 C 946.94 209.74 958.90 210.19 970.83 210.40 C 978.54 211.16 986.28 210.85 994.02 210.87 C 996.95 211.14 1000.57 210.70 1002.78 213.11 C 1007.32 218.03 1009.85 224.57 1015.07 228.92 C 1021.26 234.19 1026.52 240.56 1030.40 247.71 C 1034.00 253.60 1037.08 259.98 1042.13 264.83 C 1046.69 269.30 1050.55 274.52 1055.78 278.30 C 1061.16 282.30 1065.09 287.88 1068.37 293.66 C 1070.32 297.07 1070.48 301.09 1070.90 304.91 C 1071.46 311.18 1073.56 317.15 1074.58 323.34 C 1075.77 330.19 1077.04 337.06 1079.48 343.60 C 1081.74 349.63 1082.62 356.06 1084.91 362.07 C 1087.73 369.36 1091.01 376.47 1094.66 383.38 C 1099.86 393.54 1096.79 405.39 1100.02 416.06 C 1101.33 419.91 1100.53 423.91 1098.35 427.27 C 1086.89 427.11 1075.42 427.57 1063.97 426.83 C 1042.99 425.68 1021.96 426.69 1000.97 426.06 C 974.67 424.35 948.30 425.87 921.98 424.96 C 896.34 423.50 870.65 424.75 845.00 424.06 C 819.35 422.22 793.63 423.81 767.96 422.97 C 751.99 421.63 735.95 422.58 719.95 422.17 C 707.27 422.30 694.61 421.66 681.94 421.65 C 662.98 420.83 644.00 421.57 625.04 421.16 C 609.06 419.62 592.98 420.48 576.95 420.26 C 566.31 420.28 555.67 420.23 545.03 420.28 C 538.66 420.35 532.37 419.17 526.01 419.24 C 507.66 419.28 489.31 419.33 470.96 418.99 C 457.67 417.76 444.32 418.43 430.99 418.28 C 418.01 418.37 405.01 417.97 392.04 418.48 C 392.69 417.43 393.36 416.39 394.03 415.34 C 389.84 412.78 385.94 409.76 381.71 407.26 C 377.24 404.67 371.74 405.93 367.08 404.00 C 363.98 401.71 362.76 397.74 359.81 395.30 C 357.64 393.84 355.08 393.14 352.64 392.27 C 345.34 389.91 338.40 386.63 331.40 383.53 C 325.00 380.71 319.04 376.90 313.75 372.33 C 319.10 370.52 324.19 368.02 328.81 364.78 C 340.78 356.69 354.69 351.92 366.34 343.33 C 369.15 341.36 372.22 339.82 375.23 338.20 C 381.41 334.89 386.85 330.43 392.83 326.80 C 399.15 322.91 406.11 320.21 412.57 316.57 C 417.90 313.63 422.45 309.29 428.35 307.45 C 432.42 306.16 436.22 304.19 439.58 301.55 C 445.64 296.57 453.98 298.74 461.00 299.89 C 471.22 301.49 479.78 307.76 489.59 310.62 C 498.57 313.38 507.89 315.03 516.67 318.46 C 523.50 314.20 531.03 311.22 537.71 306.70 C 544.51 302.56 550.75 297.56 557.68 293.61 C 565.87 288.85 574.37 284.60 582.14 279.16 C 591.08 272.94 599.94 266.44 609.86 261.83 C 624.15 255.12 637.73 247.03 651.68 239.66 C 659.64 235.51 666.90 230.20 674.70 225.77 C 688.76 217.71 702.61 209.26 715.98 200.10 C 725.41 193.60 735.65 188.41 745.46 182.53 C 751.91 178.76 757.45 173.67 763.78 169.73 C 770.71 165.17 778.42 161.96 785.43 157.53 C 791.35 153.89 795.90 148.38 802.07 145.09 C 809.17 141.28 816.62 138.20 824.00 134.99 C 839.79 128.74 854.02 119.31 868.19 110.11 C 882.28 100.22 898.93 95.14 913.90 86.85 Z" />
<path fill="#a06d38" opacity="1.00" d=" M 0.00 362.23 C 2.62 361.71 5.22 361.09 7.82 360.47 C 5.54 362.99 2.78 364.97 0.00 366.90 L 0.00 362.23 Z" />
<path fill="#a06d38" opacity="1.00" d=" M 1136.79 460.78 C 1146.13 455.56 1154.92 448.40 1165.91 447.15 C 1176.27 444.99 1186.55 448.91 1195.69 453.47 C 1202.53 456.72 1208.82 461.55 1216.53 462.61 C 1227.70 464.28 1238.82 466.29 1250.00 467.96 L 1250.00 503.36 C 1233.68 503.65 1217.30 503.12 1200.99 504.31 C 1192.02 504.81 1183.00 503.94 1174.06 505.03 C 1166.32 506.15 1158.78 503.12 1151.04 503.54 C 1136.51 502.84 1121.96 502.13 1107.44 501.34 C 1102.52 500.93 1101.23 495.04 1103.05 491.20 C 1105.52 485.67 1110.06 481.44 1113.71 476.70 C 1119.62 469.12 1128.94 465.84 1136.79 460.78 Z" />
<path fill="#a06d38" opacity="1.00" d=" M 469.84 572.37 C 472.33 571.20 474.22 568.84 476.89 568.11 C 478.05 568.44 479.22 568.79 480.38 569.16 C 480.54 570.48 480.77 571.82 480.97 573.16 C 478.19 576.33 475.09 579.19 471.82 581.84 C 472.63 583.39 473.11 585.24 474.41 586.48 C 476.17 587.32 478.19 587.23 480.10 587.23 C 480.93 588.02 481.74 588.85 482.52 589.71 C 473.29 590.26 464.05 590.02 454.81 590.07 C 454.80 585.35 454.53 580.62 455.10 575.93 C 455.23 573.34 457.37 571.58 458.76 569.60 C 461.04 569.91 463.34 570.17 465.59 570.73 C 467.03 571.20 468.40 571.88 469.84 572.37 Z" />
</g>
<g id="#f7f0eaff">
<path fill="#f7f0ea" opacity="1.00" d=" M 1212.01 172.99 C 1224.63 170.12 1237.28 167.37 1250.00 164.95 L 1250.00 214.74 C 1238.32 213.85 1226.72 215.90 1215.04 215.59 C 1205.66 215.42 1196.38 217.59 1187.00 216.90 C 1180.64 216.49 1174.31 215.81 1168.01 214.93 C 1158.68 213.64 1149.51 211.03 1140.04 211.02 C 1132.31 210.91 1124.71 212.60 1117.00 212.75 C 1112.72 212.84 1108.46 213.46 1104.42 214.88 C 1104.34 214.75 1104.17 214.49 1104.08 214.36 C 1100.96 209.48 1097.16 205.04 1092.72 201.31 C 1083.86 193.87 1075.43 185.95 1066.86 178.19 C 1077.91 178.14 1088.90 176.72 1099.96 176.96 C 1115.98 177.12 1132.01 176.81 1148.02 177.07 C 1169.38 178.84 1191.20 178.62 1212.01 172.99 Z" />
<path fill="#f7f0ea" opacity="1.00" d=" M 484.60 578.91 C 488.43 578.88 492.29 579.07 496.04 579.88 C 507.54 582.36 519.35 582.59 531.04 583.23 C 532.20 583.32 533.07 583.94 533.65 585.09 C 518.17 589.02 502.08 588.85 486.23 589.50 C 485.60 585.98 485.08 582.44 484.60 578.91 Z" />
</g>
<g id="#884e26ff">
<path fill="#884e26" opacity="1.00" d=" M 165.78 297.93 C 174.36 296.15 183.14 298.58 191.01 301.98 C 202.78 307.08 215.18 310.65 226.74 316.25 C 232.48 319.05 238.82 320.43 244.41 323.56 C 252.50 328.01 260.69 332.35 268.09 337.91 C 278.48 345.64 290.26 351.39 300.08 359.91 C 304.79 363.88 309.19 368.19 313.75 372.33 C 319.04 376.90 325.00 380.71 331.40 383.53 C 338.40 386.63 345.34 389.91 352.64 392.27 C 355.08 393.14 357.64 393.84 359.81 395.30 C 362.76 397.74 363.98 401.71 367.08 404.00 C 371.74 405.93 377.24 404.67 381.71 407.26 C 385.94 409.76 389.84 412.78 394.03 415.34 C 393.36 416.39 392.69 417.43 392.04 418.48 C 382.46 420.28 372.72 420.53 363.00 420.30 C 354.00 420.30 345.05 421.69 336.04 421.22 C 321.05 421.29 306.05 421.35 291.05 421.30 C 284.67 421.18 278.36 422.29 271.99 422.31 C 256.00 422.33 240.02 422.18 224.03 422.29 C 217.70 422.27 211.36 422.08 205.05 422.65 C 196.37 423.42 187.64 422.95 178.94 423.12 C 172.63 423.24 166.33 423.42 160.03 423.24 C 146.03 422.77 132.03 423.56 118.05 424.04 C 95.82 424.32 73.58 424.09 51.36 424.42 C 34.28 425.95 17.12 424.99 0.00 425.31 L 0.00 366.90 C 2.78 364.97 5.54 362.99 7.82 360.47 C 18.42 358.41 27.60 352.45 36.05 345.99 C 39.46 343.36 43.49 341.71 47.59 340.50 C 60.50 336.68 71.90 329.22 84.41 324.41 C 92.09 321.61 99.94 319.24 107.99 317.75 C 114.89 315.91 121.47 313.04 128.35 311.13 C 135.37 309.13 141.04 304.15 148.01 302.06 C 153.82 300.23 159.82 299.14 165.78 297.93 M 198.04 315.05 C 198.18 318.38 201.01 313.49 198.04 315.05 Z" />
<path fill="#884e26" opacity="1.00" d=" M 572.59 573.59 C 574.71 572.12 577.27 571.89 579.76 571.63 C 579.61 576.02 580.38 580.88 577.86 584.77 C 573.88 591.18 566.71 594.84 559.51 596.32 C 551.69 597.69 543.88 599.12 535.99 600.04 C 522.56 603.04 508.74 603.12 495.07 603.96 C 485.66 604.36 476.29 603.21 466.93 602.46 C 454.95 602.88 442.95 604.35 430.95 603.33 C 423.27 602.78 415.58 602.37 407.90 601.94 C 402.38 601.40 396.42 600.72 391.87 597.25 C 388.80 594.76 391.22 589.06 395.07 589.30 C 403.38 589.66 411.59 591.66 419.96 591.04 C 431.57 590.46 443.17 589.73 454.81 590.07 C 464.05 590.02 473.29 590.26 482.52 589.71 C 483.75 589.64 484.98 589.57 486.23 589.50 C 502.08 588.85 518.17 589.02 533.65 585.09 C 539.64 584.30 545.63 583.52 551.40 581.61 C 558.93 580.36 566.02 577.43 572.59 573.59 Z" />
</g>
<g id="#49423cff">
<path fill="#49423c" opacity="1.00" d=" M 456.31 559.21 C 457.71 554.81 463.41 555.32 467.05 555.85 C 469.57 555.82 470.15 558.50 471.15 560.27 C 468.38 560.75 465.41 560.73 462.86 562.00 C 461.12 563.57 460.38 565.91 459.41 567.98 C 457.30 565.63 455.14 562.52 456.31 559.21 Z" />
</g>
</svg>
