<svg xmlns="http://www.w3.org/2000/svg" viewBox="0 0 960 540"><path d="m0 104 87 54 88-33 87 6 87 32h87l88 5 87 6 87-38 87-32 88 21 87 22V0H0v104Z" style="fill:#a3a28d"/><path d="m0 185 87 10 88 17 87 5 87-11 87 33 88-6 87-11 87-37 87-38 88 43h87v-45l-87-22-88-21-87 32-87 38-87-6-88-5h-87l-87-32-87-6-88 33-87-54v83Z" style="fill:#9e8f7e"/><path d="m0 228 87 21 88 38 87 22 87-6 87 33 88-38 87-16 87-22 87-5 88 32 87-32v-67h-87l-88-43-87 38-87 37-87 11-88 6-87-33-87 11-87-5-88-17-87-10v45Z" style="fill:#7f7260"/><path d="m0 357 87 38 88-48 87 21 87 60 87 21 88-86 87 27 87-38 87 27 88-11 87 33V253l-87 32-88-32-87 5-87 22-87 16-88 38-87-33-87 6-87-22-88-38-87-21v131Z" style="fill:#634e38"/><path d="M0 541h960V399l-87-33-88 11-87-27-87 38-87-27-88 86-87-21-87-60-87-21-88 48-87-38v186Z" style="fill:#4c3c2d"/></svg>