<?xml version="1.0" encoding="UTF-8" ?>
<!DOCTYPE svg PUBLIC "-//W3C//DTD SVG 1.1//EN" "http://www.w3.org/Graphics/SVG/1.1/DTD/svg11.dtd">
<svg width="1250pt" height="703pt" viewBox="0 0 1250 703" version="1.1" xmlns="http://www.w3.org/2000/svg">
<g id="#db6c55ff">
<path fill="#db6c55" opacity="1.00" d=" M 0.00 0.00 L 1250.00 0.00 L 1250.00 179.86 C 1227.35 179.30 1204.66 180.21 1182.02 179.24 C 1176.64 179.44 1171.24 180.11 1165.87 179.43 C 1159.58 178.68 1153.31 179.72 1147.02 179.74 C 1134.34 179.85 1121.66 179.71 1108.97 179.59 C 1070.66 180.13 1032.34 179.33 994.02 179.82 C 986.01 179.75 978.08 177.91 970.06 178.67 C 963.06 179.32 956.03 178.62 949.03 179.02 C 940.04 179.48 931.06 178.45 922.07 178.90 C 910.39 179.60 898.70 178.60 887.02 178.85 C 874.98 179.50 862.95 178.31 850.92 179.10 C 831.96 178.19 812.97 179.72 794.01 178.75 C 778.67 178.89 763.33 178.58 748.00 179.04 C 734.33 178.53 720.65 179.14 706.97 178.91 C 700.97 178.59 694.97 179.32 688.97 178.96 C 681.65 178.47 674.34 179.41 667.02 179.09 C 655.35 178.98 643.68 178.59 632.01 179.11 C 618.99 178.46 605.97 179.20 592.95 178.75 C 567.31 179.41 541.65 178.49 516.00 178.82 C 504.32 179.27 492.63 179.08 480.95 178.69 C 462.63 179.28 444.31 178.56 426.00 179.10 C 412.67 178.51 399.33 178.79 385.99 178.85 C 373.68 179.30 361.37 178.42 349.06 178.94 C 342.02 179.34 334.99 178.51 327.95 178.82 C 318.99 179.13 310.01 179.03 301.04 179.01 C 289.69 178.55 278.34 179.42 266.99 178.83 C 220.33 178.96 173.70 178.96 127.04 179.06 C 87.02 178.38 46.99 179.13 6.97 178.88 C 4.56 178.73 2.25 177.97 0.00 177.13 L 0.00 0.00 Z" />
</g>
<g id="#c35b56ff">
<path fill="#c35b56" opacity="1.00" d=" M 0.00 177.13 C 2.25 177.97 4.56 178.73 6.97 178.88 C 46.99 179.13 87.02 178.38 127.04 179.06 C 173.70 178.96 220.33 178.96 266.99 178.83 C 278.34 179.42 289.69 178.55 301.04 179.01 C 310.01 179.03 318.99 179.13 327.95 178.82 C 334.99 178.51 342.02 179.34 349.06 178.94 C 361.37 178.42 373.68 179.30 385.99 178.85 C 399.33 178.79 412.67 178.51 426.00 179.10 C 444.31 178.56 462.63 179.28 480.95 178.69 C 492.63 179.08 504.32 179.27 516.00 178.82 C 541.65 178.49 567.31 179.41 592.95 178.75 C 605.97 179.20 618.99 178.46 632.01 179.11 C 643.68 178.59 655.35 178.98 667.02 179.09 C 674.34 179.41 681.65 178.47 688.97 178.96 C 694.97 179.32 700.97 178.59 706.97 178.91 C 720.65 179.14 734.33 178.53 748.00 179.04 C 763.33 178.58 778.67 178.89 794.01 178.75 C 812.97 179.72 831.96 178.19 850.92 179.10 C 862.95 178.31 874.98 179.50 887.02 178.85 C 898.70 178.60 910.39 179.60 922.07 178.90 C 931.06 178.45 940.04 179.48 949.03 179.02 C 956.03 178.62 963.06 179.32 970.06 178.67 C 978.08 177.91 986.01 179.75 994.02 179.82 C 1032.34 179.33 1070.66 180.13 1108.97 179.59 C 1121.66 179.71 1134.34 179.85 1147.02 179.74 C 1153.31 179.72 1159.58 178.68 1165.87 179.43 C 1171.24 180.11 1176.64 179.44 1182.02 179.24 C 1204.66 180.21 1227.35 179.30 1250.00 179.86 L 1250.00 226.69 C 1238.55 233.11 1227.25 239.82 1216.29 247.05 C 1210.52 247.51 1204.95 249.34 1199.14 249.43 C 1191.76 249.60 1184.38 250.63 1177.00 249.92 C 1169.67 249.27 1162.35 250.39 1155.03 250.28 C 1140.01 250.17 1124.99 249.34 1109.97 249.90 C 1105.64 250.10 1101.30 249.98 1096.98 249.79 C 1084.28 249.23 1071.59 250.91 1058.90 249.91 C 1033.93 249.70 1008.96 250.02 983.99 250.20 C 975.32 250.10 966.65 249.62 958.00 250.07 C 948.33 250.73 938.66 249.15 929.00 250.08 C 904.67 250.63 880.33 249.81 856.00 249.83 C 843.04 251.63 830.00 249.53 817.00 249.86 C 797.35 250.76 777.68 249.48 758.03 250.25 C 751.68 249.97 745.32 249.82 738.98 250.26 C 733.46 250.67 727.51 248.76 722.42 251.67 C 698.25 224.61 662.32 208.37 626.01 208.35 C 594.18 207.87 562.31 219.66 538.43 240.70 C 537.00 238.81 535.81 235.94 533.05 235.91 C 528.36 235.74 523.70 236.58 519.02 236.27 C 515.00 236.02 510.99 236.23 507.02 236.81 C 501.33 237.66 495.69 236.21 490.02 235.95 C 482.01 235.37 474.05 236.96 466.04 236.81 C 461.35 236.77 456.70 236.03 452.02 235.99 C 443.35 235.80 434.71 237.34 426.05 236.56 C 420.71 236.11 415.34 235.78 409.98 236.02 C 384.01 237.10 358.03 235.49 332.05 236.16 C 320.72 236.55 309.36 235.27 298.04 236.32 C 294.70 236.66 291.32 236.73 287.99 236.30 C 276.67 234.86 265.23 236.38 253.88 235.38 C 250.04 234.99 246.16 235.07 242.32 235.43 C 235.87 236.00 229.43 234.69 222.98 235.09 C 206.67 236.25 190.32 235.54 173.99 235.70 C 167.33 235.83 160.70 234.71 154.05 235.35 C 149.38 235.79 144.70 235.36 140.03 235.16 C 123.34 235.47 106.64 235.38 89.95 235.20 C 71.64 235.63 53.32 235.43 35.02 235.10 C 28.67 234.87 22.36 235.81 16.02 235.76 C 10.67 235.79 5.22 235.12 0.00 236.63 L 0.00 177.13 Z" />
</g>
<g id="#f2af77ff">
<path fill="#f2af77" opacity="1.00" d=" M 538.43 240.70 C 562.31 219.66 594.18 207.87 626.01 208.35 C 662.32 208.37 698.25 224.61 722.42 251.67 C 735.68 265.55 744.62 282.93 750.85 300.95 C 753.97 310.69 755.65 320.84 756.29 331.04 C 742.04 330.33 728.08 326.75 713.84 325.71 C 691.07 323.17 668.36 327.44 645.96 331.02 C 625.47 334.90 604.60 331.79 583.96 331.44 C 571.64 330.65 559.23 330.21 546.97 331.96 C 528.99 334.58 511.04 337.44 493.03 339.84 C 493.26 325.32 495.57 310.85 500.14 297.06 C 505.90 282.26 513.05 267.70 523.69 255.75 C 528.30 250.45 533.11 245.30 538.43 240.70 Z" />
</g>
<g id="#525469ff">
<path fill="#525469" opacity="1.00" d=" M 1216.29 247.05 C 1227.25 239.82 1238.55 233.11 1250.00 226.69 L 1250.00 259.59 C 1249.04 254.49 1249.34 249.26 1248.49 244.15 C 1245.17 244.83 1243.08 247.63 1240.79 249.86 C 1237.44 253.43 1232.53 254.78 1228.73 257.74 C 1225.87 260.00 1221.99 260.75 1219.59 263.59 C 1217.54 266.11 1214.32 267.01 1211.72 268.75 C 1206.67 272.33 1203.47 278.00 1198.06 281.12 C 1189.67 286.19 1184.05 294.48 1176.37 300.41 C 1172.56 303.55 1169.23 307.23 1166.06 311.00 C 1162.13 316.18 1155.92 318.82 1151.55 323.55 C 1146.96 327.25 1144.30 332.63 1140.11 336.69 C 1137.65 339.38 1134.95 341.83 1132.17 344.17 C 1130.11 345.97 1127.05 346.14 1125.22 348.26 C 1122.45 351.22 1119.02 353.39 1115.84 355.86 C 1112.27 358.23 1112.44 364.27 1107.44 364.70 C 1098.84 365.94 1091.58 370.98 1084.22 375.21 C 1079.24 378.17 1074.17 381.01 1069.47 384.39 C 1064.15 388.24 1058.06 390.84 1052.72 394.66 C 1047.14 398.61 1040.82 401.38 1035.41 405.58 C 1029.37 410.26 1022.11 413.21 1016.68 418.69 C 1012.54 422.91 1007.09 426.85 1006.27 433.15 C 1005.53 438.74 1005.74 444.42 1006.15 450.04 C 1006.64 456.24 1009.51 462.02 1012.89 467.15 C 1017.47 472.21 1022.66 476.73 1027.04 482.00 C 1028.85 484.18 1029.61 486.97 1030.36 489.65 C 1032.04 496.31 1035.61 502.26 1038.75 508.31 C 1042.66 515.71 1049.89 520.24 1055.93 525.70 C 1042.06 529.66 1027.38 530.79 1013.05 529.32 C 1003.40 528.48 993.70 528.67 984.03 528.93 C 968.11 529.58 952.99 535.10 938.08 540.25 C 925.85 544.86 913.09 548.23 901.62 554.68 C 887.05 562.67 870.74 566.35 855.32 572.29 C 836.12 579.52 815.37 580.90 795.03 580.99 C 774.11 581.91 753.82 587.47 733.37 591.46 C 709.56 596.44 685.13 596.48 660.96 598.15 C 645.03 599.23 629.66 604.06 614.89 609.88 C 585.20 622.49 558.99 642.02 529.01 654.01 C 514.58 659.50 499.49 663.43 484.09 664.77 C 457.10 667.51 429.84 667.78 403.05 672.31 C 381.00 675.93 359.10 680.39 337.11 684.37 C 304.03 690.77 270.54 694.70 237.33 700.35 C 234.27 700.85 231.32 701.82 228.46 703.00 L 199.46 703.00 C 207.97 696.06 216.99 689.54 227.03 684.98 C 239.27 679.56 251.27 673.60 263.70 668.61 C 284.31 660.23 304.62 651.04 324.04 640.17 C 333.06 635.28 341.65 629.65 350.66 624.76 C 360.19 619.24 368.64 612.11 376.90 604.89 C 383.32 599.23 390.75 594.85 397.09 589.09 C 405.89 581.47 413.83 572.43 424.62 567.53 C 439.40 560.78 454.36 554.34 469.90 549.55 C 481.92 545.68 494.40 543.59 506.59 540.37 C 524.66 535.59 543.23 533.27 561.52 529.62 C 575.58 526.72 590.04 526.47 604.05 523.31 C 627.20 518.30 647.27 505.20 668.68 495.71 C 679.31 490.72 690.57 486.53 699.84 479.14 C 697.05 479.46 693.01 477.67 691.19 480.56 C 690.55 479.91 689.90 479.26 689.27 478.64 C 689.10 479.22 688.76 480.38 688.59 480.96 C 688.03 477.99 685.14 478.80 684.09 480.89 C 684.04 480.27 683.93 479.04 683.88 478.42 C 683.43 479.05 682.52 480.31 682.07 480.93 C 681.48 480.07 680.87 479.19 680.31 478.35 C 680.14 479.07 679.80 480.52 679.63 481.24 C 679.36 480.62 678.82 479.37 678.55 478.75 C 677.88 479.31 677.25 479.91 676.63 480.51 C 675.79 479.67 674.83 479.01 673.75 478.55 C 673.64 479.64 673.55 480.75 673.47 481.86 C 673.09 481.04 672.32 479.40 671.94 478.59 C 671.57 479.17 670.84 480.35 670.48 480.94 C 670.11 480.27 669.37 478.93 669.00 478.26 C 668.32 479.05 667.68 479.88 667.03 480.69 C 666.46 480.11 665.32 478.96 664.75 478.38 C 664.70 479.25 664.61 480.99 664.56 481.86 C 663.94 480.73 663.31 479.57 662.71 478.45 C 662.34 479.03 661.59 480.17 661.22 480.75 C 660.53 480.02 659.82 479.28 659.15 478.57 C 659.06 479.32 658.87 480.83 658.77 481.58 C 658.23 480.48 657.70 479.38 657.18 478.28 C 656.55 479.35 655.92 480.43 655.31 481.51 C 655.12 480.74 654.74 479.21 654.55 478.44 C 653.79 479.29 653.06 480.15 652.32 481.01 C 652.06 480.28 651.54 478.81 651.29 478.08 C 650.85 478.76 649.99 480.12 649.55 480.81 C 648.80 480.11 648.05 479.43 647.31 478.75 C 647.07 479.38 646.57 480.62 646.32 481.25 C 646.12 480.54 645.73 479.13 645.53 478.42 C 644.71 479.42 643.88 480.42 643.08 481.43 C 643.02 480.71 642.90 479.27 642.85 478.55 C 642.11 479.30 641.40 480.06 640.68 480.82 C 640.29 480.18 639.52 478.90 639.13 478.27 C 638.77 479.00 638.04 480.45 637.67 481.18 C 636.95 480.20 636.23 479.23 635.51 478.26 C 635.32 479.12 634.94 480.82 634.75 481.67 C 634.13 480.56 633.50 479.45 632.89 478.35 C 632.57 478.95 631.92 480.16 631.60 480.76 C 630.91 480.11 630.23 479.46 629.56 478.83 C 629.33 479.37 628.87 480.47 628.63 481.01 C 628.05 480.21 627.48 479.42 626.91 478.64 C 626.59 479.21 625.97 480.35 625.65 480.93 C 625.15 480.21 624.66 479.50 624.17 478.80 C 623.65 479.79 623.16 480.81 622.66 481.82 C 622.42 480.97 621.95 479.28 621.71 478.43 C 620.89 479.25 620.08 480.09 619.27 480.93 C 619.06 480.33 618.63 479.14 618.41 478.55 C 617.76 479.34 617.12 480.13 616.48 480.93 C 616.03 480.10 615.58 479.28 615.14 478.46 C 614.57 479.41 614.01 480.36 613.46 481.32 C 612.80 480.30 612.15 479.28 611.51 478.27 C 611.24 479.05 610.71 480.60 610.44 481.37 C 610.21 480.69 609.73 479.33 609.49 478.64 C 608.70 479.53 607.90 480.42 607.12 481.32 C 607.06 480.67 606.92 479.36 606.86 478.71 C 606.06 479.45 605.30 480.21 604.52 480.96 C 604.32 480.30 603.92 478.98 603.72 478.32 C 603.05 479.20 602.37 480.08 601.72 480.97 C 600.96 480.21 600.21 479.45 599.48 478.70 C 599.23 479.54 598.74 481.21 598.49 482.05 C 598.28 480.82 598.07 479.60 597.86 478.39 C 596.94 479.41 596.03 480.43 595.13 481.46 C 595.06 480.71 594.92 479.21 594.85 478.46 C 594.01 479.35 593.19 480.25 592.37 481.15 C 592.22 480.52 591.92 479.25 591.77 478.61 C 591.11 479.27 590.49 479.96 589.86 480.63 C 588.91 479.81 587.90 479.12 586.81 478.53 C 586.72 479.32 586.54 480.90 586.45 481.69 C 585.59 480.62 584.72 479.54 583.87 478.49 C 583.72 479.62 583.59 480.75 583.46 481.89 C 583.14 481.19 582.49 479.79 582.16 479.08 C 581.77 479.57 580.99 480.53 580.60 481.01 C 580.06 480.23 579.53 479.46 579.00 478.70 C 578.63 479.38 577.89 480.75 577.52 481.44 C 576.77 480.44 576.01 479.44 575.26 478.45 C 575.12 479.14 574.84 480.53 574.70 481.22 C 573.81 480.31 572.90 479.41 572.02 478.51 C 571.87 479.36 571.58 481.05 571.44 481.89 C 570.68 480.75 569.92 479.60 569.18 478.47 C 568.95 479.63 568.74 480.81 568.53 481.99 C 568.06 480.84 567.59 479.70 567.12 478.57 C 566.70 479.20 565.87 480.46 565.45 481.09 C 564.72 480.33 563.99 479.58 563.28 478.84 C 563.14 479.44 562.86 480.64 562.73 481.24 C 562.07 480.27 561.41 479.31 560.76 478.35 C 560.45 479.11 559.81 480.64 559.50 481.40 C 559.25 480.66 558.76 479.18 558.52 478.44 C 557.87 479.35 557.23 480.26 556.60 481.18 C 555.90 480.33 555.20 479.50 554.52 478.67 C 554.28 479.20 553.82 480.25 553.58 480.78 C 552.44 479.45 551.24 478.51 550.29 480.74 C 549.81 480.12 549.34 479.50 548.87 478.90 C 548.32 479.41 547.22 480.43 546.67 480.95 C 546.59 478.01 546.60 475.08 546.68 472.16 C 549.74 471.32 552.78 470.21 555.98 470.03 C 559.53 470.02 562.90 471.27 566.31 472.11 C 566.39 473.71 566.47 475.33 566.56 476.94 C 608.38 477.16 650.20 477.08 692.03 477.20 C 695.95 477.14 699.97 477.65 703.82 476.67 C 707.09 475.20 709.62 472.54 712.33 470.27 C 717.19 465.85 722.30 461.71 727.06 457.18 C 701.39 457.89 675.71 456.95 650.03 457.31 C 629.38 457.22 608.73 457.37 588.08 457.62 C 573.04 458.27 557.97 458.32 542.92 458.59 C 518.30 459.93 493.64 459.30 469.01 458.75 C 458.45 458.76 447.89 458.95 437.35 459.59 C 415.23 459.39 393.10 459.18 370.98 459.51 C 355.66 459.50 340.33 459.75 325.05 458.57 C 310.92 458.44 296.88 456.81 282.79 456.11 C 271.22 453.98 259.48 452.85 247.94 450.62 C 264.70 448.77 279.63 440.54 294.90 434.06 C 299.69 431.70 305.02 430.92 309.91 428.83 C 316.01 426.26 322.87 427.12 329.13 425.08 C 336.20 422.78 343.70 423.62 351.00 423.47 C 356.39 423.44 361.55 421.31 366.97 421.57 C 379.99 421.79 393.00 421.68 406.02 421.63 C 411.44 421.80 416.53 419.41 421.95 419.53 C 444.53 419.39 466.92 416.06 489.34 413.70 C 493.64 413.39 497.72 411.84 501.98 411.21 C 518.80 409.19 535.33 405.37 552.09 402.94 C 565.53 400.99 579.03 398.99 592.09 395.14 C 612.64 387.91 632.96 379.92 653.90 373.82 C 689.76 362.78 727.19 357.49 764.59 355.49 C 771.14 354.68 777.77 355.18 784.33 354.41 C 796.20 353.29 808.15 354.62 819.99 353.15 C 827.65 352.92 835.33 352.99 843.00 353.07 C 857.29 354.53 871.67 353.59 886.00 353.85 C 898.36 353.59 910.76 354.44 923.09 353.33 C 956.29 352.01 988.99 345.57 1021.93 341.71 C 1032.57 340.24 1043.27 339.34 1053.96 338.26 C 1070.93 337.18 1088.04 335.77 1105.01 337.77 C 1107.94 338.25 1110.25 336.07 1112.45 334.49 C 1128.88 321.94 1144.42 308.22 1159.08 293.66 C 1171.94 281.93 1184.82 270.16 1198.84 259.80 C 1204.59 255.46 1210.61 251.49 1216.29 247.05 Z" />
<path fill="#525469" opacity="1.00" d=" M 678.39 703.00 C 684.96 701.34 692.01 701.32 698.57 703.00 L 678.39 703.00 Z" />
</g>
<g id="#a75762ff">
<path fill="#a75762" opacity="1.00" d=" M 16.02 235.76 C 22.36 235.81 28.67 234.87 35.02 235.10 C 53.32 235.43 71.64 235.63 89.95 235.20 C 106.64 235.38 123.34 235.47 140.03 235.16 C 144.70 235.36 149.38 235.79 154.05 235.35 C 160.70 234.71 167.33 235.83 173.99 235.70 C 190.32 235.54 206.67 236.25 222.98 235.09 C 229.43 234.69 235.87 236.00 242.32 235.43 C 246.16 235.07 250.04 234.99 253.88 235.38 C 265.23 236.38 276.67 234.86 287.99 236.30 C 291.32 236.73 294.70 236.66 298.04 236.32 C 309.36 235.27 320.72 236.55 332.05 236.16 C 358.03 235.49 384.01 237.10 409.98 236.02 C 415.34 235.78 420.71 236.11 426.05 236.56 C 434.71 237.34 443.35 235.80 452.02 235.99 C 456.70 236.03 461.35 236.77 466.04 236.81 C 474.05 236.96 482.01 235.37 490.02 235.95 C 495.69 236.21 501.33 237.66 507.02 236.81 C 510.99 236.23 515.00 236.02 519.02 236.27 C 523.70 236.58 528.36 235.74 533.05 235.91 C 535.81 235.94 537.00 238.81 538.43 240.70 C 533.11 245.30 528.30 250.45 523.69 255.75 C 513.05 267.70 505.90 282.26 500.14 297.06 C 491.80 297.22 483.46 297.01 475.13 296.67 C 468.41 298.10 461.69 296.15 454.94 296.19 C 450.87 295.73 447.04 298.26 443.00 297.22 C 437.05 295.84 431.01 297.52 425.01 296.98 C 415.67 296.27 406.31 296.72 396.97 297.05 C 385.97 296.15 374.93 296.68 363.92 296.65 C 354.96 295.95 345.97 296.59 337.01 297.00 C 328.99 297.30 320.99 296.26 312.96 296.59 C 300.66 297.32 288.31 297.12 276.00 296.70 C 269.01 297.18 262.01 297.11 255.02 296.56 C 243.70 296.59 232.37 296.25 221.06 296.89 C 214.39 296.91 207.71 296.10 201.06 296.87 C 192.06 298.03 183.02 296.58 173.99 297.05 C 165.66 297.50 157.38 295.86 149.05 296.43 C 139.73 297.16 130.39 296.56 121.07 297.02 C 107.70 295.64 94.30 297.92 80.92 296.74 C 74.59 296.68 68.27 297.23 61.95 296.59 C 47.64 297.73 33.27 295.20 19.00 297.01 C 12.67 297.35 6.33 296.82 0.00 296.55 L 0.00 236.63 C 5.22 235.12 10.67 235.79 16.02 235.76 Z" />
<path fill="#a75762" opacity="1.00" d=" M 1199.14 249.43 C 1204.95 249.34 1210.52 247.51 1216.29 247.05 C 1210.61 251.49 1204.59 255.46 1198.84 259.80 C 1184.82 270.16 1171.94 281.93 1159.08 293.66 C 1146.00 293.64 1133.08 296.00 1120.06 296.87 C 1076.33 301.53 1032.49 305.31 988.55 307.34 C 980.09 308.41 971.53 307.63 963.07 308.71 C 950.75 309.33 938.36 309.21 926.06 308.06 C 908.97 306.70 891.40 304.97 874.64 309.65 C 863.87 312.83 852.53 312.50 841.53 314.41 C 825.60 316.96 810.25 322.07 794.90 326.89 C 782.41 330.70 769.26 331.42 756.29 331.04 C 755.65 320.84 753.97 310.69 750.85 300.95 C 744.62 282.93 735.68 265.55 722.42 251.67 C 727.51 248.76 733.46 250.67 738.98 250.26 C 745.32 249.82 751.68 249.97 758.03 250.25 C 777.68 249.48 797.35 250.76 817.00 249.86 C 830.00 249.53 843.04 251.63 856.00 249.83 C 880.33 249.81 904.67 250.63 929.00 250.08 C 938.66 249.15 948.33 250.73 958.00 250.07 C 966.65 249.62 975.32 250.10 983.99 250.20 C 1008.96 250.02 1033.93 249.70 1058.90 249.91 C 1071.59 250.91 1084.28 249.23 1096.98 249.79 C 1101.30 249.98 1105.64 250.10 1109.97 249.90 C 1124.99 249.34 1140.01 250.17 1155.03 250.28 C 1162.35 250.39 1169.67 249.27 1177.00 249.92 C 1184.38 250.63 1191.76 249.60 1199.14 249.43 Z" />
<path fill="#a75762" opacity="1.00" d=" M 282.79 456.11 C 296.88 456.81 310.92 458.44 325.05 458.57 C 340.33 459.75 355.66 459.50 370.98 459.51 C 393.10 459.18 415.23 459.39 437.35 459.59 C 430.30 460.94 423.10 460.70 415.96 460.94 C 387.32 461.12 358.67 461.33 330.04 461.03 C 314.25 459.91 298.27 459.63 282.79 456.11 Z" />
</g>
<g id="#3d4354ff">
<path fill="#3d4354" opacity="1.00" d=" M 1240.79 249.86 C 1243.08 247.63 1245.17 244.83 1248.49 244.15 C 1249.34 249.26 1249.04 254.49 1250.00 259.59 L 1250.00 703.00 L 698.57 703.00 C 692.01 701.32 684.96 701.34 678.39 703.00 L 228.46 703.00 C 231.32 701.82 234.27 700.85 237.33 700.35 C 270.54 694.70 304.03 690.77 337.11 684.37 C 359.10 680.39 381.00 675.93 403.05 672.31 C 429.84 667.78 457.10 667.51 484.09 664.77 C 499.49 663.43 514.58 659.50 529.01 654.01 C 558.99 642.02 585.20 622.49 614.89 609.88 C 629.66 604.06 645.03 599.23 660.96 598.15 C 685.13 596.48 709.56 596.44 733.37 591.46 C 753.82 587.47 774.11 581.91 795.03 580.99 C 815.37 580.90 836.12 579.52 855.32 572.29 C 870.74 566.35 887.05 562.67 901.62 554.68 C 913.09 548.23 925.85 544.86 938.08 540.25 C 952.99 535.10 968.11 529.58 984.03 528.93 C 993.70 528.67 1003.40 528.48 1013.05 529.32 C 1027.38 530.79 1042.06 529.66 1055.93 525.70 C 1049.89 520.24 1042.66 515.71 1038.75 508.31 C 1035.61 502.26 1032.04 496.31 1030.36 489.65 C 1029.61 486.97 1028.85 484.18 1027.04 482.00 C 1022.66 476.73 1017.47 472.21 1012.89 467.15 C 1009.51 462.02 1006.64 456.24 1006.15 450.04 C 1005.74 444.42 1005.53 438.74 1006.27 433.15 C 1007.09 426.85 1012.54 422.91 1016.68 418.69 C 1022.11 413.21 1029.37 410.26 1035.41 405.58 C 1040.82 401.38 1047.14 398.61 1052.72 394.66 C 1058.06 390.84 1064.15 388.24 1069.47 384.39 C 1074.17 381.01 1079.24 378.17 1084.22 375.21 C 1091.58 370.98 1098.84 365.94 1107.44 364.70 C 1112.44 364.27 1112.27 358.23 1115.84 355.86 C 1119.02 353.39 1122.45 351.22 1125.22 348.26 C 1127.05 346.14 1130.11 345.97 1132.17 344.17 C 1134.95 341.83 1137.65 339.38 1140.11 336.69 C 1144.30 332.63 1146.96 327.25 1151.55 323.55 C 1155.92 318.82 1162.13 316.18 1166.06 311.00 C 1169.23 307.23 1172.56 303.55 1176.37 300.41 C 1184.05 294.48 1189.67 286.19 1198.06 281.12 C 1203.47 278.00 1206.67 272.33 1211.72 268.75 C 1214.32 267.01 1217.54 266.11 1219.59 263.59 C 1221.99 260.75 1225.87 260.00 1228.73 257.74 C 1232.53 254.78 1237.44 253.43 1240.79 249.86 Z" />
</g>
<g id="#5f6178ff">
<path fill="#5f6178" opacity="1.00" d=" M 1120.06 296.87 C 1133.08 296.00 1146.00 293.64 1159.08 293.66 C 1144.42 308.22 1128.88 321.94 1112.45 334.49 C 1110.25 336.07 1107.94 338.25 1105.01 337.77 C 1088.04 335.77 1070.93 337.18 1053.96 338.26 C 1043.27 339.34 1032.57 340.24 1021.93 341.71 C 988.99 345.57 956.29 352.01 923.09 353.33 C 910.76 354.44 898.36 353.59 886.00 353.85 C 871.67 353.59 857.29 354.53 843.00 353.07 C 835.33 352.99 827.65 352.92 819.99 353.15 C 808.15 354.62 796.20 353.29 784.33 354.41 C 777.77 355.18 771.14 354.68 764.59 355.49 C 727.19 357.49 689.76 362.78 653.90 373.82 C 632.96 379.92 612.64 387.91 592.09 395.14 C 579.03 398.99 565.53 400.99 552.09 402.94 C 535.33 405.37 518.80 409.19 501.98 411.21 C 497.72 411.84 493.64 413.39 489.34 413.70 C 489.45 413.34 489.69 412.64 489.80 412.29 C 471.36 410.80 453.55 405.26 435.22 402.97 C 438.03 400.40 441.86 399.71 445.34 398.47 C 451.01 396.53 456.84 395.06 462.32 392.59 C 451.58 391.68 440.79 392.14 430.03 392.06 C 350.67 392.05 271.31 392.05 191.95 392.02 C 181.99 392.13 172.03 391.38 162.07 391.68 C 166.79 384.92 173.92 380.55 180.65 376.05 C 156.09 376.00 131.53 375.99 106.98 376.37 C 71.32 376.66 35.65 376.15 0.00 376.61 L 0.00 296.55 C 6.33 296.82 12.67 297.35 19.00 297.01 C 33.27 295.20 47.64 297.73 61.95 296.59 C 68.27 297.23 74.59 296.68 80.92 296.74 C 94.30 297.92 107.70 295.64 121.07 297.02 C 130.39 296.56 139.73 297.16 149.05 296.43 C 157.38 295.86 165.66 297.50 173.99 297.05 C 183.02 296.58 192.06 298.03 201.06 296.87 C 207.71 296.10 214.39 296.91 221.06 296.89 C 232.37 296.25 243.70 296.59 255.02 296.56 C 262.01 297.11 269.01 297.18 276.00 296.70 C 288.31 297.12 300.66 297.32 312.96 296.59 C 320.99 296.26 328.99 297.30 337.01 297.00 C 345.97 296.59 354.96 295.95 363.92 296.65 C 374.93 296.68 385.97 296.15 396.97 297.05 C 406.31 296.72 415.67 296.27 425.01 296.98 C 431.01 297.52 437.05 295.84 443.00 297.22 C 447.04 298.26 450.87 295.73 454.94 296.19 C 461.69 296.15 468.41 298.10 475.13 296.67 C 483.46 297.01 491.80 297.22 500.14 297.06 C 495.57 310.85 493.26 325.32 493.03 339.84 C 511.04 337.44 528.99 334.58 546.97 331.96 C 559.23 330.21 571.64 330.65 583.96 331.44 C 604.60 331.79 625.47 334.90 645.96 331.02 C 668.36 327.44 691.07 323.17 713.84 325.71 C 728.08 326.75 742.04 330.33 756.29 331.04 C 769.26 331.42 782.41 330.70 794.90 326.89 C 810.25 322.07 825.60 316.96 841.53 314.41 C 852.53 312.50 863.87 312.83 874.64 309.65 C 891.40 304.97 908.97 306.70 926.06 308.06 C 938.36 309.21 950.75 309.33 963.07 308.71 C 971.53 307.63 980.09 308.41 988.55 307.34 C 1032.49 305.31 1076.33 301.53 1120.06 296.87 Z" />
</g>
<g id="#de877bff">
<path fill="#de877b" opacity="1.00" d=" M 0.00 376.61 C 35.65 376.15 71.32 376.66 106.98 376.37 C 131.53 375.99 156.09 376.00 180.65 376.05 C 173.92 380.55 166.79 384.92 162.07 391.68 C 172.03 391.38 181.99 392.13 191.95 392.02 C 271.31 392.05 350.67 392.05 430.03 392.06 C 440.79 392.14 451.58 391.68 462.32 392.59 C 456.84 395.06 451.01 396.53 445.34 398.47 C 441.86 399.71 438.03 400.40 435.22 402.97 C 453.55 405.26 471.36 410.80 489.80 412.29 C 489.69 412.64 489.45 413.34 489.34 413.70 C 466.92 416.06 444.53 419.39 421.95 419.53 C 416.53 419.41 411.44 421.80 406.02 421.63 C 393.00 421.68 379.99 421.79 366.97 421.57 C 361.55 421.31 356.39 423.44 351.00 423.47 C 343.70 423.62 336.20 422.78 329.13 425.08 C 322.87 427.12 316.01 426.26 309.91 428.83 C 305.02 430.92 299.69 431.70 294.90 434.06 C 279.63 440.54 264.70 448.77 247.94 450.62 C 259.48 452.85 271.22 453.98 282.79 456.11 C 298.27 459.63 314.25 459.91 330.04 461.03 C 358.67 461.33 387.32 461.12 415.96 460.94 C 423.10 460.70 430.30 460.94 437.35 459.59 C 447.89 458.95 458.45 458.76 469.01 458.75 C 493.64 459.30 518.30 459.93 542.92 458.59 C 557.97 458.32 573.04 458.27 588.08 457.62 C 608.73 457.37 629.38 457.22 650.03 457.31 C 675.71 456.95 701.39 457.89 727.06 457.18 C 722.30 461.71 717.19 465.85 712.33 470.27 C 709.62 472.54 707.09 475.20 703.82 476.67 C 699.97 477.65 695.95 477.14 692.03 477.20 C 650.20 477.08 608.38 477.16 566.56 476.94 C 566.47 475.33 566.39 473.71 566.31 472.11 C 562.90 471.27 559.53 470.02 555.98 470.03 C 552.78 470.21 549.74 471.32 546.68 472.16 C 546.60 475.08 546.59 478.01 546.67 480.95 C 547.22 480.43 548.32 479.41 548.87 478.90 C 549.34 479.50 549.81 480.12 550.29 480.74 C 551.24 478.51 552.44 479.45 553.58 480.78 C 553.82 480.25 554.28 479.20 554.52 478.67 C 555.20 479.50 555.90 480.33 556.60 481.18 C 557.23 480.26 557.87 479.35 558.52 478.44 C 558.76 479.18 559.25 480.66 559.50 481.40 C 559.81 480.64 560.45 479.11 560.76 478.35 C 561.41 479.31 562.07 480.27 562.73 481.24 C 562.86 480.64 563.14 479.44 563.28 478.84 C 563.99 479.58 564.72 480.33 565.45 481.09 C 565.87 480.46 566.70 479.20 567.12 478.57 C 567.59 479.70 568.06 480.84 568.53 481.99 C 568.74 480.81 568.95 479.63 569.18 478.47 C 569.92 479.60 570.68 480.75 571.44 481.89 C 571.58 481.05 571.87 479.36 572.02 478.51 C 572.90 479.41 573.81 480.31 574.70 481.22 C 574.84 480.53 575.12 479.14 575.26 478.45 C 576.01 479.44 576.77 480.44 577.52 481.44 C 577.89 480.75 578.63 479.38 579.00 478.70 C 579.53 479.46 580.06 480.23 580.60 481.01 C 580.99 480.53 581.77 479.57 582.16 479.08 C 582.49 479.79 583.14 481.19 583.46 481.89 C 583.59 480.75 583.72 479.62 583.87 478.49 C 584.72 479.54 585.59 480.62 586.45 481.69 C 586.54 480.90 586.72 479.32 586.81 478.53 C 587.90 479.12 588.91 479.81 589.86 480.63 C 590.49 479.96 591.11 479.27 591.77 478.61 C 591.92 479.25 592.22 480.52 592.37 481.15 C 593.19 480.25 594.01 479.35 594.85 478.46 C 594.92 479.21 595.06 480.71 595.13 481.46 C 596.03 480.43 596.94 479.41 597.86 478.39 C 598.07 479.60 598.28 480.82 598.49 482.05 C 598.74 481.21 599.23 479.54 599.48 478.70 C 600.21 479.45 600.96 480.21 601.72 480.97 C 602.37 480.08 603.05 479.20 603.72 478.32 C 603.92 478.98 604.32 480.30 604.52 480.96 C 605.30 480.21 606.06 479.45 606.86 478.71 C 606.92 479.36 607.06 480.67 607.12 481.32 C 607.90 480.42 608.70 479.53 609.49 478.64 C 609.73 479.33 610.21 480.69 610.44 481.37 C 610.71 480.60 611.24 479.05 611.51 478.27 C 612.15 479.28 612.80 480.30 613.46 481.32 C 614.01 480.36 614.57 479.41 615.14 478.46 C 615.58 479.28 616.03 480.10 616.48 480.93 C 617.12 480.13 617.76 479.34 618.41 478.55 C 618.63 479.14 619.06 480.33 619.27 480.93 C 620.08 480.09 620.89 479.25 621.71 478.43 C 621.95 479.28 622.42 480.97 622.66 481.82 C 623.16 480.81 623.65 479.79 624.17 478.80 C 624.66 479.50 625.15 480.21 625.65 480.93 C 625.97 480.35 626.59 479.21 626.91 478.64 C 627.48 479.42 628.05 480.21 628.63 481.01 C 628.87 480.47 629.33 479.37 629.56 478.83 C 630.23 479.46 630.91 480.11 631.60 480.76 C 631.92 480.16 632.57 478.95 632.89 478.35 C 633.50 479.45 634.13 480.56 634.75 481.67 C 634.94 480.82 635.32 479.12 635.51 478.26 C 636.23 479.23 636.95 480.20 637.67 481.18 C 638.04 480.45 638.77 479.00 639.13 478.27 C 639.52 478.90 640.29 480.18 640.68 480.82 C 641.40 480.06 642.11 479.30 642.85 478.55 C 642.90 479.27 643.02 480.71 643.08 481.43 C 643.88 480.42 644.71 479.42 645.53 478.42 C 645.73 479.13 646.12 480.54 646.32 481.25 C 646.57 480.62 647.07 479.38 647.31 478.75 C 648.05 479.43 648.80 480.11 649.55 480.81 C 649.99 480.12 650.85 478.76 651.29 478.08 C 651.54 478.81 652.06 480.28 652.32 481.01 C 653.06 480.15 653.79 479.29 654.55 478.44 C 654.74 479.21 655.12 480.74 655.31 481.51 C 655.92 480.43 656.55 479.35 657.18 478.28 C 657.70 479.38 658.23 480.48 658.77 481.58 C 658.87 480.83 659.06 479.32 659.15 478.57 C 659.82 479.28 660.53 480.02 661.22 480.75 C 661.59 480.17 662.34 479.03 662.71 478.45 C 663.31 479.57 663.94 480.73 664.56 481.86 C 664.61 480.99 664.70 479.25 664.75 478.38 C 665.32 478.96 666.46 480.11 667.03 480.69 C 667.68 479.88 668.32 479.05 669.00 478.26 C 669.37 478.93 670.11 480.27 670.48 480.94 C 670.84 480.35 671.57 479.17 671.94 478.59 C 672.32 479.40 673.09 481.04 673.47 481.86 C 673.55 480.75 673.64 479.64 673.75 478.55 C 674.83 479.01 675.79 479.67 676.63 480.51 C 677.25 479.91 677.88 479.31 678.55 478.75 C 678.82 479.37 679.36 480.62 679.63 481.24 C 679.80 480.52 680.14 479.07 680.31 478.35 C 680.87 479.19 681.48 480.07 682.07 480.93 C 682.52 480.31 683.43 479.05 683.88 478.42 C 683.93 479.04 684.04 480.27 684.09 480.89 C 685.14 478.80 688.03 477.99 688.59 480.96 C 688.76 480.38 689.10 479.22 689.27 478.64 C 689.90 479.26 690.55 479.91 691.19 480.56 C 693.01 477.67 697.05 479.46 699.84 479.14 C 690.57 486.53 679.31 490.72 668.68 495.71 C 647.27 505.20 627.20 518.30 604.05 523.31 C 590.04 526.47 575.58 526.72 561.52 529.62 C 543.23 533.27 524.66 535.59 506.59 540.37 C 494.40 543.59 481.92 545.68 469.90 549.55 C 454.36 554.34 439.40 560.78 424.62 567.53 C 413.83 572.43 405.89 581.47 397.09 589.09 C 390.75 594.85 383.32 599.23 376.90 604.89 C 368.64 612.11 360.19 619.24 350.66 624.76 C 341.65 629.65 333.06 635.28 324.04 640.17 C 304.62 651.04 284.31 660.23 263.70 668.61 C 251.27 673.60 239.27 679.56 227.03 684.98 C 216.99 689.54 207.97 696.06 199.46 703.00 L 0.00 703.00 L 0.00 376.61 Z" />
</g>
</svg>
