<?xml version="1.0" encoding="UTF-8" ?>
<!DOCTYPE svg PUBLIC "-//W3C//DTD SVG 1.1//EN" "http://www.w3.org/Graphics/SVG/1.1/DTD/svg11.dtd">
<svg width="961pt" height="541pt" viewBox="0 0 961 541" version="1.1" xmlns="http://www.w3.org/2000/svg">
<g id="#479691ff">
<path fill="#479691" opacity="1.00" d=" M 0.00 0.00 L 961.00 0.00 L 961.00 541.00 L 0.00 541.00 L 0.00 0.00 M 442.27 188.81 C 442.20 192.40 442.43 196.25 440.42 199.42 C 438.76 202.63 435.80 204.79 433.03 206.97 C 430.58 208.62 432.10 211.80 432.45 214.09 C 430.97 214.38 429.52 214.68 428.05 214.98 C 427.75 218.36 428.34 222.23 426.10 225.07 C 424.37 227.49 421.13 226.25 418.69 226.27 C 421.17 228.44 424.32 229.56 427.63 229.39 C 428.07 230.22 428.51 231.06 428.96 231.91 C 428.26 235.30 430.02 238.39 430.76 241.57 C 428.92 243.86 426.15 245.08 423.83 246.79 C 425.11 248.23 426.46 249.61 427.87 250.92 C 428.02 252.27 427.45 256.81 429.77 255.30 C 430.15 256.01 430.92 257.42 431.30 258.13 L 432.09 258.50 L 431.66 258.96 C 431.03 261.34 433.72 262.19 435.54 261.88 C 435.54 261.96 435.52 262.11 435.52 262.18 C 434.77 262.23 433.27 262.33 432.52 262.37 C 432.67 264.32 433.12 268.79 436.16 267.37 C 429.34 273.03 424.14 280.31 418.08 286.72 C 419.31 287.79 420.54 288.87 421.78 289.95 C 420.46 292.05 419.14 294.17 417.84 296.29 C 416.11 296.60 413.69 295.83 412.73 297.77 C 410.14 301.67 409.02 306.81 404.83 309.45 C 404.57 307.18 404.60 304.90 404.74 302.63 C 400.03 306.75 399.62 313.15 399.51 318.98 C 401.08 316.05 402.57 313.08 404.35 310.28 C 406.12 312.43 406.73 315.30 408.61 317.37 C 411.59 320.85 415.83 322.83 419.98 324.54 C 419.14 326.18 418.28 327.80 417.42 329.43 C 420.65 330.35 424.32 329.83 427.19 331.84 C 430.11 333.66 433.23 335.21 436.61 335.97 C 436.62 334.39 436.62 332.82 436.63 331.25 C 440.36 332.85 444.08 334.49 447.92 335.81 C 447.24 336.25 446.56 336.69 445.89 337.13 C 447.37 343.31 449.74 349.22 452.26 355.04 C 457.45 352.18 462.87 349.73 468.15 347.06 C 464.15 341.35 459.69 335.92 455.77 330.13 C 455.17 328.98 453.46 327.24 454.96 326.10 C 458.04 323.54 461.81 322.03 465.29 320.11 C 470.49 323.67 475.26 327.81 480.11 331.82 C 482.33 333.74 484.85 335.41 486.49 337.90 C 487.50 337.91 488.52 337.90 489.55 337.87 C 495.55 332.48 502.73 328.55 509.11 323.61 C 516.78 326.44 524.37 329.48 532.02 332.36 C 528.31 341.54 520.96 348.74 512.80 354.11 C 507.36 351.30 502.12 348.13 496.95 344.85 C 494.38 343.12 491.57 341.62 489.60 339.18 C 488.45 339.07 487.31 338.98 486.17 338.91 C 480.55 342.22 474.46 344.62 468.44 347.05 C 473.13 354.33 479.28 360.69 485.27 366.96 C 478.44 369.73 471.68 372.67 465.22 376.20 L 465.70 377.31 C 463.94 375.23 462.34 373.03 460.90 370.73 C 458.78 372.39 456.97 374.39 455.18 376.39 C 448.47 375.70 442.50 379.56 437.26 383.25 C 437.07 386.60 437.46 389.98 439.00 393.01 C 435.69 395.72 431.94 397.84 428.62 400.53 C 426.16 403.56 425.02 407.41 423.81 411.07 C 421.24 419.37 421.28 429.15 426.55 436.43 C 431.33 443.21 439.12 446.89 446.76 449.46 C 449.48 451.18 451.00 454.54 454.21 455.67 C 459.06 458.01 464.49 456.11 468.93 453.76 C 470.34 456.40 472.80 458.83 475.94 459.05 C 478.52 459.34 480.83 457.96 483.12 457.00 C 485.05 459.28 486.85 462.13 489.97 462.86 C 492.47 463.57 494.77 461.92 497.13 461.38 C 499.51 463.54 501.33 467.15 505.03 467.04 C 508.29 467.34 510.77 464.96 513.03 462.98 C 515.55 466.75 519.10 470.21 519.58 474.95 C 519.55 476.95 521.01 478.30 522.37 479.55 C 522.97 481.49 522.97 483.84 524.61 485.28 C 525.87 486.59 527.81 486.45 529.46 486.79 C 529.95 484.88 530.47 482.99 531.01 481.11 C 533.61 481.57 536.26 481.57 538.88 481.19 C 539.32 484.11 540.33 487.30 542.96 488.99 C 544.99 490.39 547.57 489.92 549.90 490.05 C 548.63 494.37 550.73 500.64 555.69 501.47 C 557.34 501.79 559.24 502.33 560.80 501.40 C 561.98 504.93 562.31 509.16 565.39 511.69 C 568.08 513.77 571.68 512.87 574.77 512.36 C 575.02 514.89 575.32 517.44 575.12 519.99 C 575.15 523.17 572.61 525.42 570.72 527.67 C 567.68 531.33 561.87 532.23 560.61 537.37 L 560.00 537.44 C 561.80 539.34 564.31 540.46 566.96 540.15 C 580.16 538.69 593.85 535.89 604.73 527.80 C 608.64 525.14 608.63 519.93 611.60 516.54 C 613.51 514.20 612.37 511.11 610.39 509.26 C 607.24 503.28 600.92 500.31 596.89 495.07 C 596.96 492.71 597.22 490.32 596.81 487.99 C 595.95 485.53 593.56 484.11 591.66 482.54 C 591.69 481.90 591.76 480.64 591.80 480.01 C 591.43 480.17 590.70 480.49 590.33 480.65 C 589.76 477.32 589.55 473.49 586.82 471.10 C 585.24 469.26 582.91 468.46 580.65 467.85 C 580.32 466.79 580.00 465.74 579.69 464.69 C 579.44 464.92 578.95 465.37 578.70 465.60 C 577.82 460.46 575.41 455.35 570.65 452.78 C 570.09 450.25 569.78 447.33 567.62 445.60 C 565.77 443.85 562.93 444.28 560.88 443.09 C 560.55 441.08 560.91 438.95 560.22 437.02 C 559.15 436.25 557.99 435.64 556.87 435.00 C 555.48 428.75 553.57 422.53 553.32 416.10 C 552.79 416.07 551.72 415.99 551.19 415.95 C 552.15 414.47 554.23 415.35 555.69 414.94 C 557.11 413.55 558.19 411.86 559.32 410.23 C 556.85 403.34 554.67 396.33 551.70 389.63 C 551.98 388.66 552.29 387.71 552.61 386.76 C 576.35 395.81 600.10 404.88 623.96 413.57 C 624.36 413.08 625.17 412.11 625.58 411.62 L 626.13 411.97 C 626.11 409.67 626.08 407.38 626.03 405.10 C 623.62 404.28 621.25 403.37 618.94 402.32 C 618.01 401.58 617.03 400.89 615.94 400.45 C 598.19 393.01 580.49 385.43 562.60 378.32 C 562.19 378.73 561.79 379.15 561.40 379.58 C 560.07 380.92 558.94 382.45 557.81 383.95 C 556.05 384.27 554.41 385.04 552.90 385.96 C 553.20 384.95 553.63 384.01 554.21 383.14 C 548.08 377.51 541.68 372.13 534.71 367.57 C 536.13 365.69 537.90 364.14 539.64 362.56 C 545.34 357.07 550.11 350.68 554.10 343.85 C 554.07 343.20 554.00 341.89 553.97 341.24 C 546.83 338.06 539.66 334.95 532.32 332.25 C 534.78 326.81 537.81 321.56 542.06 317.31 C 540.05 317.33 538.03 317.32 536.04 317.24 C 540.64 313.09 546.80 311.02 552.71 309.48 C 551.75 312.02 550.94 314.62 550.30 317.27 C 557.22 317.16 564.15 317.27 571.02 318.18 C 567.12 321.63 563.65 325.56 560.94 330.02 C 558.55 333.50 557.21 337.60 554.53 340.89 C 556.44 343.10 559.26 344.06 561.80 345.31 C 567.92 348.20 573.75 351.69 579.14 355.80 C 582.73 350.73 585.06 344.97 587.26 339.21 C 589.17 333.90 593.91 330.42 598.73 327.91 C 599.69 330.20 600.50 332.56 601.14 334.97 C 605.65 331.24 606.14 325.17 607.77 319.94 C 601.18 320.12 594.60 320.45 588.02 320.65 C 584.90 320.77 582.00 319.50 579.02 318.81 C 578.92 313.61 580.74 308.32 579.95 303.23 C 571.09 304.24 562.30 306.37 553.74 308.90 C 555.15 304.93 558.01 301.76 560.62 298.54 C 559.01 298.73 557.41 298.92 555.81 299.11 C 554.67 294.67 553.99 290.02 551.67 285.99 C 550.82 287.20 550.22 288.65 549.04 289.58 C 541.81 287.72 534.63 284.82 528.87 279.98 C 530.53 274.25 531.92 268.44 533.84 262.80 C 542.83 265.49 550.73 270.93 557.03 277.81 C 557.89 273.94 558.02 269.60 555.84 266.11 C 553.80 262.75 549.97 261.28 546.79 259.26 C 543.40 257.37 540.41 254.83 537.00 252.98 C 533.97 252.44 530.91 253.08 527.91 253.49 C 528.91 254.64 529.99 255.74 530.83 257.03 C 531.18 259.06 530.34 261.19 529.04 262.74 C 526.28 261.99 523.81 260.46 521.16 259.44 C 521.14 259.08 521.11 258.37 521.09 258.01 C 521.51 257.62 522.35 256.84 522.77 256.45 C 517.96 257.44 514.01 254.24 510.96 250.97 C 511.10 250.40 511.38 249.25 511.52 248.67 C 513.58 248.77 515.63 249.00 517.70 248.97 C 519.43 249.68 521.29 251.25 523.25 250.34 C 554.45 238.43 585.57 226.28 616.81 214.45 L 615.92 214.07 C 617.36 214.16 618.80 214.00 620.23 213.60 C 617.29 212.33 613.97 210.99 610.74 211.72 C 577.67 223.23 544.76 235.19 511.84 247.13 C 512.42 244.91 511.66 242.66 510.44 240.81 C 510.14 242.66 510.83 244.94 509.41 246.44 C 504.79 248.95 499.03 246.36 496.83 241.86 C 499.52 242.48 501.97 243.75 504.40 245.04 C 504.23 242.29 502.97 239.87 501.49 237.62 C 504.70 235.51 507.86 233.24 510.30 230.23 C 507.64 231.17 504.88 232.90 501.96 231.96 C 497.45 230.69 494.37 226.79 491.97 223.00 C 497.11 222.16 501.36 225.57 504.98 228.70 C 501.31 221.43 494.53 216.55 487.87 212.24 C 492.72 211.27 497.10 207.94 498.34 202.99 C 495.84 204.71 493.31 206.91 490.09 206.89 C 485.31 207.09 481.29 204.06 477.83 201.14 C 475.50 199.02 472.19 199.18 469.28 198.80 C 470.60 196.61 471.59 194.23 472.15 191.73 C 468.67 194.81 464.60 197.38 459.86 197.79 C 455.01 198.78 449.45 196.10 445.37 199.80 C 445.59 195.87 444.38 192.09 442.27 188.81 M 583.78 294.65 C 582.38 297.04 580.77 299.91 581.23 302.75 C 581.60 302.81 582.35 302.94 582.72 303.00 C 592.21 302.17 601.82 301.98 611.27 303.41 C 611.36 300.62 611.63 297.79 611.10 295.03 C 609.49 293.53 607.12 293.66 605.09 293.44 C 597.98 293.17 590.80 293.54 583.78 294.65 Z" />
<path fill="#479691" opacity="1.00" d=" M 457.14 254.25 C 459.01 256.22 460.90 258.17 462.87 260.04 C 467.91 261.47 470.50 266.34 473.64 270.10 C 473.16 266.72 472.43 263.38 471.34 260.15 L 470.90 258.79 C 473.56 260.14 476.13 261.67 478.68 263.24 C 478.57 262.11 478.34 259.87 478.23 258.74 C 479.66 261.00 481.06 263.38 481.36 266.10 C 482.12 269.90 480.37 273.51 479.06 276.97 C 481.84 274.67 484.29 272.00 486.46 269.13 C 489.12 272.47 492.38 275.32 496.14 277.36 C 489.17 278.44 481.90 278.89 475.23 281.22 C 475.14 281.54 474.97 282.17 474.88 282.49 C 477.94 290.52 480.98 298.59 483.12 306.94 C 474.38 309.60 465.91 313.25 457.03 315.33 C 453.27 307.39 452.68 298.42 451.39 289.84 C 456.39 287.14 461.50 284.54 466.99 282.99 C 469.25 282.32 471.60 281.85 473.73 280.78 C 473.75 280.50 473.81 279.92 473.84 279.64 C 470.88 272.98 467.62 266.31 463.00 260.63 C 458.07 261.92 453.21 263.53 448.10 263.96 C 450.77 262.47 452.88 260.22 455.13 258.18 C 455.32 258.90 455.72 260.32 455.91 261.03 C 456.34 258.77 456.73 256.51 457.14 254.25 Z" />
<path fill="#479691" opacity="1.00" d=" M 513.32 261.26 C 515.98 261.59 518.75 262.19 520.62 264.28 C 522.69 268.53 524.34 272.98 525.58 277.55 C 523.90 276.99 522.22 276.44 520.54 275.89 C 524.83 282.93 529.50 289.73 533.64 296.87 C 526.61 297.30 519.62 298.12 512.68 299.24 C 508.63 292.11 503.96 285.34 500.25 278.02 L 499.63 276.92 C 506.46 275.79 513.40 275.25 520.33 275.71 C 518.13 271.28 515.53 267.06 513.42 262.60 C 513.39 262.27 513.34 261.60 513.32 261.26 Z" />
<path fill="#479691" opacity="1.00" d=" M 422.08 289.90 C 426.71 281.70 431.82 273.50 439.11 267.39 C 447.39 271.57 449.40 281.71 451.20 289.97 C 446.78 294.51 442.65 299.33 438.25 303.89 C 432.88 299.21 427.48 294.56 422.08 289.90 Z" />
<path fill="#479691" opacity="1.00" d=" M 534.03 296.97 C 535.94 296.93 537.97 296.28 539.85 296.93 C 541.29 297.97 542.52 299.27 543.82 300.49 C 544.54 299.64 545.28 298.79 546.02 297.95 C 547.61 299.12 549.23 300.27 550.74 301.57 C 547.61 303.90 543.65 304.89 540.28 306.87 C 538.20 303.56 536.08 300.29 534.03 296.97 Z" />
<path fill="#479691" opacity="1.00" d=" M 483.15 307.42 C 492.58 303.82 502.50 301.67 512.31 299.34 C 515.95 305.04 519.11 311.03 522.49 316.89 C 520.73 316.97 518.96 316.89 517.24 317.23 C 514.35 319.04 511.85 321.40 509.07 323.38 C 504.57 321.52 500.24 319.30 495.95 317.03 C 492.97 315.42 489.28 317.23 486.30 315.83 C 484.73 313.25 484.09 310.25 483.15 307.42 Z" />
<path fill="#479691" opacity="1.00" d=" M 433.49 305.68 C 436.22 303.66 440.08 304.52 442.57 306.52 C 446.61 309.56 450.78 312.43 454.82 315.48 C 454.82 316.71 453.45 317.03 452.67 317.70 C 446.76 321.34 441.68 326.12 436.29 330.45 C 431.58 327.44 426.12 326.14 420.82 324.64 C 423.30 320.85 426.45 317.49 428.47 313.39 C 430.02 310.77 430.86 307.49 433.49 305.68 Z" />
<path fill="#479691" opacity="1.00" d=" M 462.74 316.79 C 465.47 316.61 468.21 316.61 470.93 316.93 C 469.32 318.18 467.51 319.13 465.67 319.98 C 464.69 318.91 463.71 317.86 462.74 316.79 Z" />
<path fill="#479691" opacity="1.00" d=" M 485.98 367.06 C 495.06 363.06 504.27 359.28 512.91 354.35 C 520.18 358.28 527.24 362.61 534.02 367.34 C 525.38 374.57 516.27 381.40 506.11 386.35 C 498.82 380.55 492.24 373.93 485.98 367.06 Z" />
<path fill="#479691" opacity="1.00" d=" M 485.39 397.22 C 491.99 393.07 499.12 389.86 506.18 386.56 C 512.48 391.75 518.31 397.48 524.43 402.87 C 524.60 403.60 524.93 405.06 525.10 405.78 C 523.06 407.37 521.03 408.97 518.97 410.53 C 515.51 409.14 511.76 408.99 508.10 408.66 C 508.62 410.31 509.13 411.95 509.65 413.60 C 501.84 408.05 493.60 403.16 485.82 397.58 L 485.39 397.22 Z" />
</g>
<g id="#571f28ff">
<path fill="#571f28" opacity="1.00" d=" M 442.27 188.81 C 444.38 192.09 445.59 195.87 445.37 199.80 C 449.45 196.10 455.01 198.78 459.86 197.79 C 464.60 197.38 468.67 194.81 472.15 191.73 C 471.59 194.23 470.60 196.61 469.28 198.80 C 472.19 199.18 475.50 199.02 477.83 201.14 C 481.29 204.06 485.31 207.09 490.09 206.89 C 493.31 206.91 495.84 204.71 498.34 202.99 C 497.10 207.94 492.72 211.27 487.87 212.24 C 494.53 216.55 501.31 221.43 504.98 228.70 C 501.36 225.57 497.11 222.16 491.97 223.00 C 494.37 226.79 497.45 230.69 501.96 231.96 C 504.88 232.90 507.64 231.17 510.30 230.23 C 507.86 233.24 504.70 235.51 501.49 237.62 C 502.97 239.87 504.23 242.29 504.40 245.04 C 501.97 243.75 499.52 242.48 496.83 241.86 C 499.03 246.36 504.79 248.95 509.41 246.44 C 510.83 244.94 510.14 242.66 510.44 240.81 C 511.66 242.66 512.42 244.91 511.84 247.13 C 511.76 247.52 511.60 248.29 511.52 248.67 C 511.38 249.25 511.10 250.40 510.96 250.97 C 514.01 254.24 517.96 257.44 522.77 256.45 C 522.35 256.84 521.51 257.62 521.09 258.01 C 521.11 258.37 521.14 259.08 521.16 259.44 C 521.05 261.06 520.82 262.67 520.62 264.28 C 518.75 262.19 515.98 261.59 513.32 261.26 C 513.34 261.60 513.39 262.27 513.42 262.60 C 513.44 264.81 513.38 267.03 513.34 269.25 C 510.17 265.49 506.16 262.59 501.24 261.72 C 501.09 261.15 500.77 260.00 500.61 259.43 C 504.01 260.02 507.22 261.33 510.32 262.82 C 509.02 259.95 506.99 257.53 504.80 255.30 C 506.22 255.18 507.65 255.06 509.09 254.94 C 508.05 254.18 507.03 253.42 506.03 252.64 C 504.79 250.54 502.37 249.79 500.35 248.68 C 497.17 247.08 494.71 244.45 492.09 242.10 C 488.45 243.21 484.64 243.58 480.87 242.98 C 481.47 242.36 482.08 241.75 482.69 241.15 C 476.45 237.36 475.69 229.70 473.63 223.38 C 476.95 226.58 477.89 231.18 479.87 235.16 C 482.14 239.34 487.31 240.17 491.61 240.51 C 490.51 238.33 489.35 236.18 488.15 234.05 C 491.05 235.18 494.02 236.15 497.03 236.94 C 492.64 232.71 488.86 227.96 485.10 223.20 C 482.56 224.09 480.14 225.30 477.55 226.04 C 478.80 223.98 480.88 222.71 482.91 221.54 C 479.65 221.33 476.25 221.26 473.26 219.79 C 470.33 218.37 467.85 216.23 465.35 214.18 C 465.46 215.50 465.57 216.82 465.68 218.15 C 463.39 215.64 461.35 212.92 459.56 210.04 C 461.06 210.32 462.57 210.61 464.08 210.89 C 461.93 208.43 459.81 205.59 456.59 204.50 C 452.89 204.01 449.37 205.69 446.04 207.05 C 451.39 212.67 455.10 220.23 453.71 228.17 C 451.68 220.79 449.65 211.57 442.06 208.05 C 439.36 209.59 438.14 212.89 436.06 215.15 C 436.46 211.27 439.07 208.39 441.94 206.01 C 443.89 204.77 443.05 202.24 443.34 200.34 C 440.49 203.82 437.19 206.90 434.20 210.25 C 434.05 212.38 434.56 214.47 434.90 216.56 C 433.65 216.67 432.40 216.78 431.16 216.90 C 430.91 221.28 429.61 225.49 427.63 229.39 C 424.32 229.56 421.17 228.44 418.69 226.27 C 421.13 226.25 424.37 227.49 426.10 225.07 C 428.34 222.23 427.75 218.36 428.05 214.98 C 429.52 214.68 430.97 214.38 432.45 214.09 C 432.10 211.80 430.58 208.62 433.03 206.97 C 435.80 204.79 438.76 202.63 440.42 199.42 C 442.43 196.25 442.20 192.40 442.27 188.81 M 459.79 203.85 C 463.23 207.52 466.94 210.93 470.23 214.75 C 472.98 217.98 477.32 219.39 481.48 219.14 C 478.62 214.69 473.84 212.21 469.81 209.02 C 472.00 209.62 474.16 210.33 476.33 211.01 C 472.81 205.61 465.97 203.46 459.79 203.85 Z" />
<path fill="#571f28" opacity="1.00" d=" M 457.91 211.77 C 461.26 215.20 463.83 220.21 462.84 225.10 C 462.25 223.99 461.67 222.87 461.10 221.76 C 460.72 224.91 460.24 228.06 459.40 231.13 C 458.35 226.40 457.66 221.57 456.04 216.99 C 456.95 217.61 457.86 218.25 458.78 218.88 C 458.44 216.52 458.13 214.14 457.91 211.77 Z" />
<path fill="#571f28" opacity="1.00" d=" M 471.29 227.89 C 475.18 236.05 473.64 245.65 468.95 253.13 C 469.59 255.01 470.26 256.90 470.90 258.79 L 471.34 260.15 C 465.18 255.47 463.30 247.02 465.50 239.81 C 465.93 243.08 466.32 246.36 466.98 249.60 C 472.70 243.87 472.29 235.29 471.29 227.89 Z" />
<path fill="#571f28" opacity="1.00" d=" M 486.70 246.36 C 494.35 249.17 497.32 258.46 495.33 265.86 C 494.60 268.80 495.88 271.66 496.99 274.31 C 492.81 271.14 490.91 266.07 490.08 261.05 C 489.51 256.81 487.19 253.17 484.82 249.73 C 486.64 250.47 488.47 251.21 490.31 251.94 C 489.09 250.09 487.87 248.24 486.70 246.36 Z" />
</g>
<g id="#05090cff">
<path fill="#05090c" opacity="1.00" d=" M 434.20 210.25 C 437.19 206.90 440.49 203.82 443.34 200.34 C 443.05 202.24 443.89 204.77 441.94 206.01 C 439.07 208.39 436.46 211.27 436.06 215.15 C 438.14 212.89 439.36 209.59 442.06 208.05 C 449.65 211.57 451.68 220.79 453.71 228.17 C 455.10 220.23 451.39 212.67 446.04 207.05 C 449.37 205.69 452.89 204.01 456.59 204.50 C 459.81 205.59 461.93 208.43 464.08 210.89 C 462.57 210.61 461.06 210.32 459.56 210.04 C 461.35 212.92 463.39 215.64 465.68 218.15 C 465.57 216.82 465.46 215.50 465.35 214.18 C 467.85 216.23 470.33 218.37 473.26 219.79 C 476.25 221.26 479.65 221.33 482.91 221.54 C 480.88 222.71 478.80 223.98 477.55 226.04 C 480.14 225.30 482.56 224.09 485.10 223.20 C 488.86 227.96 492.64 232.71 497.03 236.94 C 494.02 236.15 491.05 235.18 488.15 234.05 C 489.35 236.18 490.51 238.33 491.61 240.51 C 487.31 240.17 482.14 239.34 479.87 235.16 C 477.89 231.18 476.95 226.58 473.63 223.38 C 475.69 229.70 476.45 237.36 482.69 241.15 C 482.08 241.75 481.47 242.36 480.87 242.98 C 484.64 243.58 488.45 243.21 492.09 242.10 C 494.71 244.45 497.17 247.08 500.35 248.68 C 502.37 249.79 504.79 250.54 506.03 252.64 C 507.03 253.42 508.05 254.18 509.09 254.94 C 507.65 255.06 506.22 255.18 504.80 255.30 C 506.99 257.53 509.02 259.95 510.32 262.82 C 507.22 261.33 504.01 260.02 500.61 259.43 C 500.77 260.00 501.09 261.15 501.24 261.72 C 501.93 266.36 505.24 269.75 508.14 273.18 C 503.15 272.23 499.11 269.04 495.33 265.86 C 497.32 258.46 494.35 249.17 486.70 246.36 C 487.87 248.24 489.09 250.09 490.31 251.94 C 488.47 251.21 486.64 250.47 484.82 249.73 C 487.19 253.17 489.51 256.81 490.08 261.05 C 490.91 266.07 492.81 271.14 496.99 274.31 C 497.87 275.17 498.78 276.02 499.63 276.92 L 500.25 278.02 C 498.87 277.79 497.51 277.58 496.14 277.36 C 492.38 275.32 489.12 272.47 486.46 269.13 C 484.29 272.00 481.84 274.67 479.06 276.97 C 480.37 273.51 482.12 269.90 481.36 266.10 C 481.06 263.38 479.66 261.00 478.23 258.74 C 478.34 259.87 478.57 262.11 478.68 263.24 C 476.13 261.67 473.56 260.14 470.90 258.79 C 470.26 256.90 469.59 255.01 468.95 253.13 C 473.64 245.65 475.18 236.05 471.29 227.89 C 472.29 235.29 472.70 243.87 466.98 249.60 C 466.32 246.36 465.93 243.08 465.50 239.81 C 463.30 247.02 465.18 255.47 471.34 260.15 C 472.43 263.38 473.16 266.72 473.64 270.10 C 470.50 266.34 467.91 261.47 462.87 260.04 C 460.90 258.17 459.01 256.22 457.14 254.25 C 456.73 256.51 456.34 258.77 455.91 261.03 C 455.72 260.32 455.32 258.90 455.13 258.18 C 454.63 255.44 454.53 252.66 454.52 249.88 C 452.72 251.34 450.86 252.72 448.95 254.01 C 450.77 250.79 452.78 247.59 453.59 243.93 C 454.69 239.71 453.35 235.42 452.74 231.24 C 451.87 233.20 451.11 235.21 450.32 237.20 C 450.58 232.09 450.56 226.75 448.10 222.11 C 446.43 219.74 444.32 216.79 441.00 217.30 C 436.35 217.23 433.39 221.46 431.37 225.09 C 430.42 227.31 429.57 229.57 428.96 231.91 C 428.51 231.06 428.07 230.22 427.63 229.39 C 429.61 225.49 430.91 221.28 431.16 216.90 C 432.40 216.78 433.65 216.67 434.90 216.56 C 434.56 214.47 434.05 212.38 434.20 210.25 M 457.91 211.77 C 458.13 214.14 458.44 216.52 458.78 218.88 C 457.86 218.25 456.95 217.61 456.04 216.99 C 457.66 221.57 458.35 226.40 459.40 231.13 C 460.24 228.06 460.72 224.91 461.10 221.76 C 461.67 222.87 462.25 223.99 462.84 225.10 C 463.83 220.21 461.26 215.20 457.91 211.77 Z" />
<path fill="#05090c" opacity="1.00" d=" M 459.79 203.85 C 465.97 203.46 472.81 205.61 476.33 211.01 C 474.16 210.33 472.00 209.62 469.81 209.02 C 473.84 212.21 478.62 214.69 481.48 219.14 C 477.32 219.39 472.98 217.98 470.23 214.75 C 466.94 210.93 463.23 207.52 459.79 203.85 Z" />
<path fill="#05090c" opacity="1.00" d=" M 552.90 385.96 C 554.41 385.04 556.05 384.27 557.81 383.95 C 559.78 384.25 561.76 384.69 563.63 385.44 C 581.15 392.57 598.72 399.57 616.08 407.08 C 619.32 408.42 622.62 409.70 625.58 411.62 C 625.17 412.11 624.36 413.08 623.96 413.57 C 600.10 404.88 576.35 395.81 552.61 386.76 L 552.90 385.96 Z" />
</g>
<g id="#e8e8e8ff">
<path fill="#e8e8e8" opacity="1.00" d=" M 610.74 211.72 C 613.97 210.99 617.29 212.33 620.23 213.60 C 618.80 214.00 617.36 214.16 615.92 214.07 C 614.23 213.71 612.43 213.05 610.75 213.79 C 579.57 225.08 548.62 236.99 517.70 248.97 C 515.63 249.00 513.58 248.77 511.52 248.67 C 511.60 248.29 511.76 247.52 511.84 247.13 C 544.76 235.19 577.67 223.23 610.74 211.72 Z" />
<path fill="#e8e8e8" opacity="1.00" d=" M 429.77 255.30 C 431.65 253.76 433.47 251.77 436.08 251.62 C 437.59 252.44 438.66 253.85 439.88 255.04 C 438.07 257.61 435.14 258.61 432.09 258.50 L 431.30 258.13 C 430.92 257.42 430.15 256.01 429.77 255.30 Z" />
<path fill="#e8e8e8" opacity="1.00" d=" M 561.40 379.58 C 561.79 379.15 562.19 378.73 562.60 378.32 C 580.49 385.43 598.19 393.01 615.94 400.45 C 617.03 400.89 618.01 401.58 618.94 402.32 C 599.85 394.81 580.87 387.05 561.93 379.18 L 561.40 379.58 Z" />
<path fill="#e8e8e8" opacity="1.00" d=" M 458.93 384.43 C 461.73 383.12 465.45 382.74 467.55 385.49 C 470.56 389.85 472.68 394.82 476.21 398.84 C 482.15 405.60 488.84 412.31 497.45 415.50 C 493.69 409.44 488.48 404.31 485.82 397.58 C 493.60 403.16 501.84 408.05 509.65 413.60 C 509.13 411.95 508.62 410.31 508.10 408.66 C 511.76 408.99 515.51 409.14 518.97 410.53 C 521.03 408.97 523.06 407.37 525.10 405.78 C 524.93 405.06 524.60 403.60 524.43 402.87 C 525.03 402.98 526.22 403.21 526.82 403.32 C 530.53 400.83 535.66 399.69 537.95 395.60 C 542.07 394.48 546.53 393.65 549.39 390.13 C 549.97 390.00 551.12 389.75 551.70 389.63 C 554.67 396.33 556.85 403.34 559.32 410.23 C 558.19 411.86 557.11 413.55 555.69 414.94 C 554.23 415.35 552.15 414.47 551.19 415.95 C 550.91 416.32 550.36 417.05 550.09 417.41 C 546.01 420.41 541.01 421.78 536.21 423.17 C 528.61 425.01 520.78 426.23 512.95 426.12 C 512.59 425.76 511.87 425.05 511.51 424.69 C 510.92 425.05 510.33 425.40 509.74 425.74 C 508.96 424.28 508.32 422.77 507.65 421.27 C 506.65 422.82 505.65 424.38 504.62 425.91 C 504.25 422.59 503.87 419.28 503.58 415.96 C 501.71 418.89 499.96 422.10 497.01 424.09 C 495.19 424.07 493.40 423.75 491.63 423.43 C 487.64 422.54 483.79 421.08 480.23 419.10 C 477.26 417.44 474.60 415.33 472.03 413.14 C 472.84 411.58 473.67 410.02 474.51 408.48 C 473.49 408.96 471.45 409.91 470.43 410.39 C 471.92 407.91 473.44 405.45 475.03 403.05 C 471.83 404.93 468.50 406.56 465.08 407.97 C 460.69 404.20 457.29 399.46 452.86 395.74 C 454.79 392.76 457.04 390.00 459.61 387.55 C 459.37 386.51 459.15 385.47 458.93 384.43 Z" />
</g>
<g id="#101c25ff">
<path fill="#101c25" opacity="1.00" d=" M 610.75 213.79 C 612.43 213.05 614.23 213.71 615.92 214.07 L 616.81 214.45 C 585.57 226.28 554.45 238.43 523.25 250.34 C 521.29 251.25 519.43 249.68 517.70 248.97 C 548.62 236.99 579.57 225.08 610.75 213.79 Z" />
<path fill="#101c25" opacity="1.00" d=" M 527.91 253.49 C 530.91 253.08 533.97 252.44 537.00 252.98 C 540.41 254.83 543.40 257.37 546.79 259.26 C 549.97 261.28 553.80 262.75 555.84 266.11 C 558.02 269.60 557.89 273.94 557.03 277.81 C 550.73 270.93 542.83 265.49 533.84 262.80 C 531.92 268.44 530.53 274.25 528.87 279.98 C 534.63 284.82 541.81 287.72 549.04 289.58 C 550.22 288.65 550.82 287.20 551.67 285.99 C 553.99 290.02 554.67 294.67 555.81 299.11 C 557.41 298.92 559.01 298.73 560.62 298.54 C 558.01 301.76 555.15 304.93 553.74 308.90 C 562.30 306.37 571.09 304.24 579.95 303.23 C 580.74 308.32 578.92 313.61 579.02 318.81 C 582.00 319.50 584.90 320.77 588.02 320.65 C 594.60 320.45 601.18 320.12 607.77 319.94 C 606.14 325.17 605.65 331.24 601.14 334.97 C 600.50 332.56 599.69 330.20 598.73 327.91 C 593.91 330.42 589.17 333.90 587.26 339.21 C 585.06 344.97 582.73 350.73 579.14 355.80 C 573.75 351.69 567.92 348.20 561.80 345.31 C 559.26 344.06 556.44 343.10 554.53 340.89 C 557.21 337.60 558.55 333.50 560.94 330.02 C 563.65 325.56 567.12 321.63 571.02 318.18 C 564.15 317.27 557.22 317.16 550.30 317.27 C 550.94 314.62 551.75 312.02 552.71 309.48 C 546.80 311.02 540.64 313.09 536.04 317.24 C 538.03 317.32 540.05 317.33 542.06 317.31 C 537.81 321.56 534.78 326.81 532.32 332.25 C 539.66 334.95 546.83 338.06 553.97 341.24 C 554.00 341.89 554.07 343.20 554.10 343.85 C 550.11 350.68 545.34 357.07 539.64 362.56 C 537.90 364.14 536.13 365.69 534.71 367.57 C 541.68 372.13 548.08 377.51 554.21 383.14 C 553.63 384.01 553.20 384.95 552.90 385.96 L 552.61 386.76 C 552.29 387.71 551.98 388.66 551.70 389.63 C 551.12 389.75 549.97 390.00 549.39 390.13 C 546.53 393.65 542.07 394.48 537.95 395.60 C 535.66 399.69 530.53 400.83 526.82 403.32 C 526.22 403.21 525.03 402.98 524.43 402.87 C 518.31 397.48 512.48 391.75 506.18 386.56 C 499.12 389.86 491.99 393.07 485.39 397.22 C 478.07 391.40 471.39 384.74 465.70 377.31 L 465.22 376.20 C 471.68 372.67 478.44 369.73 485.27 366.96 C 479.28 360.69 473.13 354.33 468.44 347.05 C 474.46 344.62 480.55 342.22 486.17 338.91 C 487.31 338.98 488.45 339.07 489.60 339.18 C 491.57 341.62 494.38 343.12 496.95 344.85 C 502.12 348.13 507.36 351.30 512.80 354.11 C 520.96 348.74 528.31 341.54 532.02 332.36 C 524.37 329.48 516.78 326.44 509.11 323.61 C 502.73 328.55 495.55 332.48 489.55 337.87 C 488.52 337.90 487.50 337.91 486.49 337.90 C 484.85 335.41 482.33 333.74 480.11 331.82 C 475.26 327.81 470.49 323.67 465.29 320.11 C 461.81 322.03 458.04 323.54 454.96 326.10 C 453.46 327.24 455.17 328.98 455.77 330.13 C 459.69 335.92 464.15 341.35 468.15 347.06 C 462.87 349.73 457.45 352.18 452.26 355.04 C 449.74 349.22 447.37 343.31 445.89 337.13 C 446.56 336.69 447.24 336.25 447.92 335.81 C 444.08 334.49 440.36 332.85 436.63 331.25 C 436.62 332.82 436.62 334.39 436.61 335.97 C 433.23 335.21 430.11 333.66 427.19 331.84 C 424.32 329.83 420.65 330.35 417.42 329.43 C 418.28 327.80 419.14 326.18 419.98 324.54 C 415.83 322.83 411.59 320.85 408.61 317.37 C 406.73 315.30 406.12 312.43 404.35 310.28 C 402.57 313.08 401.08 316.05 399.51 318.98 C 399.62 313.15 400.03 306.75 404.74 302.63 C 404.60 304.90 404.57 307.18 404.83 309.45 C 409.02 306.81 410.14 301.67 412.73 297.77 C 413.69 295.83 416.11 296.60 417.84 296.29 C 419.14 294.17 420.46 292.05 421.78 289.95 C 420.54 288.87 419.31 287.79 418.08 286.72 C 424.14 280.31 429.34 273.03 436.16 267.37 C 439.91 265.56 443.97 264.47 448.10 263.96 C 453.21 263.53 458.07 261.92 463.00 260.63 C 467.62 266.31 470.88 272.98 473.84 279.64 C 473.81 279.92 473.75 280.50 473.73 280.78 C 471.60 281.85 469.25 282.32 466.99 282.99 C 461.50 284.54 456.39 287.14 451.39 289.84 C 452.68 298.42 453.27 307.39 457.03 315.33 C 465.91 313.25 474.38 309.60 483.12 306.94 C 480.98 298.59 477.94 290.52 474.88 282.49 C 474.97 282.17 475.14 281.54 475.23 281.22 C 481.90 278.89 489.17 278.44 496.14 277.36 C 497.51 277.58 498.87 277.79 500.25 278.02 C 503.96 285.34 508.63 292.11 512.68 299.24 C 519.62 298.12 526.61 297.30 533.64 296.87 C 529.50 289.73 524.83 282.93 520.54 275.89 C 522.22 276.44 523.90 276.99 525.58 277.55 C 524.34 272.98 522.69 268.53 520.62 264.28 C 520.82 262.67 521.05 261.06 521.16 259.44 C 523.81 260.46 526.28 261.99 529.04 262.74 C 530.34 261.19 531.18 259.06 530.83 257.03 C 529.99 255.74 528.91 254.64 527.91 253.49 M 422.08 289.90 C 427.48 294.56 432.88 299.21 438.25 303.89 C 442.65 299.33 446.78 294.51 451.20 289.97 C 449.40 281.71 447.39 271.57 439.11 267.39 C 431.82 273.50 426.71 281.70 422.08 289.90 M 534.03 296.97 C 536.08 300.29 538.20 303.56 540.28 306.87 C 543.65 304.89 547.61 303.90 550.74 301.57 C 549.23 300.27 547.61 299.12 546.02 297.95 C 545.28 298.79 544.54 299.64 543.82 300.49 C 542.52 299.27 541.29 297.97 539.85 296.93 C 537.97 296.28 535.94 296.93 534.03 296.97 M 483.15 307.42 C 484.09 310.25 484.73 313.25 486.30 315.83 C 489.28 317.23 492.97 315.42 495.95 317.03 C 500.24 319.30 504.57 321.52 509.07 323.38 C 511.85 321.40 514.35 319.04 517.24 317.23 C 518.96 316.89 520.73 316.97 522.49 316.89 C 519.11 311.03 515.95 305.04 512.31 299.34 C 502.50 301.67 492.58 303.82 483.15 307.42 M 433.49 305.68 C 430.86 307.49 430.02 310.77 428.47 313.39 C 426.45 317.49 423.30 320.85 420.82 324.64 C 426.12 326.14 431.58 327.44 436.29 330.45 C 441.68 326.12 446.76 321.34 452.67 317.70 C 453.45 317.03 454.82 316.71 454.82 315.48 C 450.78 312.43 446.61 309.56 442.57 306.52 C 440.08 304.52 436.22 303.66 433.49 305.68 M 462.74 316.79 C 463.71 317.86 464.69 318.91 465.67 319.98 C 467.51 319.13 469.32 318.18 470.93 316.93 C 468.21 316.61 465.47 316.61 462.74 316.79 M 485.98 367.06 C 492.24 373.93 498.82 380.55 506.11 386.35 C 516.27 381.40 525.38 374.57 534.02 367.34 C 527.24 362.61 520.18 358.28 512.91 354.35 C 504.27 359.28 495.06 363.06 485.98 367.06 Z" />
<path fill="#101c25" opacity="1.00" d=" M 501.24 261.72 C 506.16 262.59 510.17 265.49 513.34 269.25 C 513.38 267.03 513.44 264.81 513.42 262.60 C 515.53 267.06 518.13 271.28 520.33 275.71 C 513.40 275.25 506.46 275.79 499.63 276.92 C 498.78 276.02 497.87 275.17 496.99 274.31 C 495.88 271.66 494.60 268.80 495.33 265.86 C 499.11 269.04 503.15 272.23 508.14 273.18 C 505.24 269.75 501.93 266.36 501.24 261.72 Z" />
<path fill="#101c25" opacity="1.00" d=" M 583.78 294.65 C 590.80 293.54 597.98 293.17 605.09 293.44 C 607.12 293.66 609.49 293.53 611.10 295.03 C 611.63 297.79 611.36 300.62 611.27 303.41 C 601.82 301.98 592.21 302.17 582.72 303.00 C 582.35 302.94 581.60 302.81 581.23 302.75 C 580.77 299.91 582.38 297.04 583.78 294.65 Z" />
<path fill="#101c25" opacity="1.00" d=" M 561.40 379.58 L 561.93 379.18 C 580.87 387.05 599.85 394.81 618.94 402.32 C 621.25 403.37 623.62 404.28 626.03 405.10 C 626.08 407.38 626.11 409.67 626.13 411.97 L 625.58 411.62 C 622.62 409.70 619.32 408.42 616.08 407.08 C 598.72 399.57 581.15 392.57 563.63 385.44 C 561.76 384.69 559.78 384.25 557.81 383.95 C 558.94 382.45 560.07 380.92 561.40 379.58 Z" />
<path fill="#101c25" opacity="1.00" d=" M 446.60 390.53 C 450.80 388.68 454.75 386.31 458.93 384.43 C 459.15 385.47 459.37 386.51 459.61 387.55 C 457.04 390.00 454.79 392.76 452.86 395.74 C 457.29 399.46 460.69 404.20 465.08 407.97 C 468.50 406.56 471.83 404.93 475.03 403.05 C 473.44 405.45 471.92 407.91 470.43 410.39 C 471.45 409.91 473.49 408.96 474.51 408.48 C 473.67 410.02 472.84 411.58 472.03 413.14 C 474.60 415.33 477.26 417.44 480.23 419.10 C 475.40 425.64 472.47 433.30 469.86 440.93 C 468.45 445.05 468.40 449.48 468.93 453.76 C 464.49 456.11 459.06 458.01 454.21 455.67 C 451.00 454.54 449.48 451.18 446.76 449.46 C 439.12 446.89 431.33 443.21 426.55 436.43 C 421.28 429.15 421.24 419.37 423.81 411.07 C 425.02 407.41 426.16 403.56 428.62 400.53 C 431.94 397.84 435.69 395.72 439.00 393.01 C 441.09 391.01 444.00 391.22 446.60 390.53 Z" />
<path fill="#101c25" opacity="1.00" d=" M 497.01 424.09 C 499.96 422.10 501.71 418.89 503.58 415.96 C 503.87 419.28 504.25 422.59 504.62 425.91 C 505.65 424.38 506.65 422.82 507.65 421.27 C 508.32 422.77 508.96 424.28 509.74 425.74 C 510.33 425.40 510.92 425.05 511.51 424.69 C 511.87 425.05 512.59 425.76 512.95 426.12 C 520.78 426.23 528.61 425.01 536.21 423.17 C 541.01 421.78 546.01 420.41 550.09 417.41 C 550.36 417.05 550.91 416.32 551.19 415.95 C 551.72 415.99 552.79 416.07 553.32 416.10 C 553.57 422.53 555.48 428.75 556.87 435.00 C 557.99 435.64 559.15 436.25 560.22 437.02 C 560.91 438.95 560.55 441.08 560.88 443.09 C 562.93 444.28 565.77 443.85 567.62 445.60 C 569.78 447.33 570.09 450.25 570.65 452.78 C 570.31 453.01 569.63 453.47 569.29 453.70 C 562.21 456.61 556.36 461.64 550.44 466.35 C 545.17 470.12 543.64 476.92 538.88 481.19 C 536.26 481.57 533.61 481.57 531.01 481.11 C 530.47 482.99 529.95 484.88 529.46 486.79 C 527.81 486.45 525.87 486.59 524.61 485.28 C 522.97 483.84 522.97 481.49 522.37 479.55 C 521.01 478.30 519.55 476.95 519.58 474.95 C 519.10 470.21 515.55 466.75 513.03 462.98 C 509.61 458.80 506.37 454.48 503.88 449.67 C 502.55 452.42 501.76 455.70 499.09 457.51 C 499.77 453.92 501.23 450.53 501.81 446.93 C 502.27 444.83 500.72 443.13 499.82 441.41 C 497.21 437.38 495.66 432.82 493.44 428.58 C 491.73 435.27 490.36 442.12 487.37 448.40 C 486.71 449.90 485.41 450.94 484.31 452.10 C 486.76 442.54 491.22 433.46 491.63 423.43 C 493.40 423.75 495.19 424.07 497.01 424.09 Z" />
<path fill="#101c25" opacity="1.00" d=" M 578.70 465.60 C 578.95 465.37 579.44 464.92 579.69 464.69 C 580.00 465.74 580.32 466.79 580.65 467.85 C 580.44 468.39 580.02 469.47 579.81 470.01 C 580.52 471.29 581.23 472.57 581.95 473.85 C 579.15 476.98 575.40 474.54 572.17 473.63 C 567.30 478.95 561.88 484.57 554.58 486.22 C 562.44 479.14 571.31 473.21 578.70 465.60 Z" />
<path fill="#101c25" opacity="1.00" d=" M 590.33 480.65 C 590.70 480.49 591.43 480.17 591.80 480.01 C 591.76 480.64 591.69 481.90 591.66 482.54 C 591.19 484.97 591.50 487.90 589.87 489.89 C 588.36 489.83 587.06 488.93 585.69 488.45 C 583.90 487.58 582.40 489.04 581.08 490.06 C 576.99 493.44 572.68 496.62 567.89 498.93 C 566.76 499.52 565.45 499.46 564.22 499.50 C 573.50 494.04 581.94 487.33 590.33 480.65 Z" />
<path fill="#101c25" opacity="1.00" d=" M 576.22 511.39 C 584.41 507.85 590.70 501.30 596.89 495.07 C 600.92 500.31 607.24 503.28 610.39 509.26 C 609.23 512.27 607.72 515.14 605.68 517.65 C 602.84 521.13 600.89 525.59 596.71 527.74 C 585.73 533.96 573.01 536.13 560.61 537.37 C 561.87 532.23 567.68 531.33 570.72 527.67 C 572.61 525.42 575.15 523.17 575.12 519.99 C 575.32 517.44 575.02 514.89 574.77 512.36 C 575.13 512.12 575.85 511.64 576.22 511.39 Z" />
</g>
<g id="#406571ff">
<path fill="#406571" opacity="1.00" d=" M 431.37 225.09 C 433.39 221.46 436.35 217.23 441.00 217.30 C 444.32 216.79 446.43 219.74 448.10 222.11 C 444.34 226.15 438.61 226.17 434.06 228.76 C 433.49 227.30 432.98 225.69 431.37 225.09 Z" />
<path fill="#406571" opacity="1.00" d=" M 480.23 419.10 C 483.79 421.08 487.64 422.54 491.63 423.43 C 491.22 433.46 486.76 442.54 484.31 452.10 C 485.41 450.94 486.71 449.90 487.37 448.40 C 490.36 442.12 491.73 435.27 493.44 428.58 C 495.66 432.82 497.21 437.38 499.82 441.41 C 500.72 443.13 502.27 444.83 501.81 446.93 C 501.23 450.53 499.77 453.92 499.09 457.51 C 501.76 455.70 502.55 452.42 503.88 449.67 C 506.37 454.48 509.61 458.80 513.03 462.98 C 510.77 464.96 508.29 467.34 505.03 467.04 C 501.33 467.15 499.51 463.54 497.13 461.38 C 494.77 461.92 492.47 463.57 489.97 462.86 C 486.85 462.13 485.05 459.28 483.12 457.00 C 480.83 457.96 478.52 459.34 475.94 459.05 C 472.80 458.83 470.34 456.40 468.93 453.76 C 468.40 449.48 468.45 445.05 469.86 440.93 C 472.47 433.30 475.40 425.64 480.23 419.10 Z" />
<path fill="#406571" opacity="1.00" d=" M 550.44 466.35 C 556.36 461.64 562.21 456.61 569.29 453.70 C 566.30 459.73 562.11 465.03 558.79 470.86 C 555.30 476.99 552.10 483.33 549.90 490.05 C 547.57 489.92 544.99 490.39 542.96 488.99 C 540.33 487.30 539.32 484.11 538.88 481.19 C 543.64 476.92 545.17 470.12 550.44 466.35 Z" />
<path fill="#406571" opacity="1.00" d=" M 581.08 490.06 C 582.40 489.04 583.90 487.58 585.69 488.45 C 583.07 494.02 582.32 500.50 578.28 505.35 C 576.43 507.82 573.73 509.41 571.08 510.87 C 572.78 511.04 574.49 511.24 576.22 511.39 C 575.85 511.64 575.13 512.12 574.77 512.36 C 571.68 512.87 568.08 513.77 565.39 511.69 C 562.31 509.16 561.98 504.93 560.80 501.40 C 561.95 500.79 563.09 500.15 564.22 499.50 C 565.45 499.46 566.76 499.52 567.89 498.93 C 572.68 496.62 576.99 493.44 581.08 490.06 Z" />
</g>
<g id="#e7d3c0ff">
<path fill="#e7d3c0" opacity="1.00" d=" M 434.06 228.76 C 438.61 226.17 444.34 226.15 448.10 222.11 C 450.56 226.75 450.58 232.09 450.32 237.20 C 451.11 235.21 451.87 233.20 452.74 231.24 C 453.35 235.42 454.69 239.71 453.59 243.93 C 452.78 247.59 450.77 250.79 448.95 254.01 C 450.86 252.72 452.72 251.34 454.52 249.88 C 454.53 252.66 454.63 255.44 455.13 258.18 C 452.88 260.22 450.77 262.47 448.10 263.96 C 443.97 264.47 439.91 265.56 436.16 267.37 C 433.12 268.79 432.67 264.32 432.52 262.37 C 433.27 262.33 434.77 262.23 435.52 262.18 C 435.52 262.11 435.54 261.96 435.54 261.88 C 433.72 262.19 431.03 261.34 431.66 258.96 L 432.09 258.50 C 435.14 258.61 438.07 257.61 439.88 255.04 C 438.66 253.85 437.59 252.44 436.08 251.62 C 433.47 251.77 431.65 253.76 429.77 255.30 C 427.45 256.81 428.02 252.27 427.87 250.92 C 426.46 249.61 425.11 248.23 423.83 246.79 C 426.15 245.08 428.92 243.86 430.76 241.57 C 430.02 238.39 428.26 235.30 428.96 231.91 C 429.57 229.57 430.42 227.31 431.37 225.09 C 432.98 225.69 433.49 227.30 434.06 228.76 Z" />
<path fill="#e7d3c0" opacity="1.00" d=" M 455.18 376.39 C 456.97 374.39 458.78 372.39 460.90 370.73 C 462.34 373.03 463.94 375.23 465.70 377.31 C 471.39 384.74 478.07 391.40 485.39 397.22 L 485.82 397.58 C 488.48 404.31 493.69 409.44 497.45 415.50 C 488.84 412.31 482.15 405.60 476.21 398.84 C 472.68 394.82 470.56 389.85 467.55 385.49 C 465.45 382.74 461.73 383.12 458.93 384.43 C 454.75 386.31 450.80 388.68 446.60 390.53 C 444.00 391.22 441.09 391.01 439.00 393.01 C 437.46 389.98 437.07 386.60 437.26 383.25 C 442.50 379.56 448.47 375.70 455.18 376.39 Z" />
</g>
<g id="#507e8eff">
<path fill="#507e8e" opacity="1.00" d=" M 570.65 452.78 C 575.41 455.35 577.82 460.46 578.70 465.60 C 571.31 473.21 562.44 479.14 554.58 486.22 C 561.88 484.57 567.30 478.95 572.17 473.63 C 575.40 474.54 579.15 476.98 581.95 473.85 C 581.23 472.57 580.52 471.29 579.81 470.01 C 580.02 469.47 580.44 468.39 580.65 467.85 C 582.91 468.46 585.24 469.26 586.82 471.10 C 589.55 473.49 589.76 477.32 590.33 480.65 C 581.94 487.33 573.50 494.04 564.22 499.50 C 563.09 500.15 561.95 500.79 560.80 501.40 C 559.24 502.33 557.34 501.79 555.69 501.47 C 550.73 500.64 548.63 494.37 549.90 490.05 C 552.10 483.33 555.30 476.99 558.79 470.86 C 562.11 465.03 566.30 459.73 569.29 453.70 C 569.63 453.47 570.31 453.01 570.65 452.78 Z" />
<path fill="#507e8e" opacity="1.00" d=" M 589.87 489.89 C 591.50 487.90 591.19 484.97 591.66 482.54 C 593.56 484.11 595.95 485.53 596.81 487.99 C 597.22 490.32 596.96 492.71 596.89 495.07 C 590.70 501.30 584.41 507.85 576.22 511.39 C 574.49 511.24 572.78 511.04 571.08 510.87 C 573.73 509.41 576.43 507.82 578.28 505.35 C 582.32 500.50 583.07 494.02 585.69 488.45 C 587.06 488.93 588.36 489.83 589.87 489.89 Z" />
<path fill="#507e8e" opacity="1.00" d=" M 610.39 509.26 C 612.37 511.11 613.51 514.20 611.60 516.54 C 608.63 519.93 608.64 525.14 604.73 527.80 C 593.85 535.89 580.16 538.69 566.96 540.15 C 564.31 540.46 561.80 539.34 560.00 537.44 L 560.61 537.37 C 573.01 536.13 585.73 533.96 596.71 527.74 C 600.89 525.59 602.84 521.13 605.68 517.65 C 607.72 515.14 609.23 512.27 610.39 509.26 Z" />
</g>
</svg>
