<svg xmlns="http://www.w3.org/2000/svg" width="980pt" height="980pt" viewBox="0 0 24 24"><g fill="#020202"><path d="M547.82 182.87c18.34-1.94 36.72-3.47 55.15-4.2 36.39-.81 72.83-.1 109.1 2.84 28.9 2.43 57.76 6.37 85.9 13.54 17.62 4.61 34.97 10.53 51.22 18.82 8.4 4.28 16.45 9.24 24 14.87 15.3 11.49 28.12 26.3 36.96 43.29 5.11 9.79 8.97 20.2 11.95 30.83 4.57 16.67 6.78 33.87 8.04 51.08 3.59 62.24-4.85 126.22-31.49 183.02-.63 1.3-1.23 2.61-1.85 3.92-.69 1.33-1.37 2.67-2.06 4.01-1.5 2.8-2.99 5.61-4.52 8.39-4.27 7.67-8.94 15.11-14.06 22.23-1.23 1.57-2.45 3.33-2.4 5.42-.41 12.16-1.7 24.25-2.57 36.38l-.37.55c-1.41 15.82-3.11 31.8-7.99 47-7.46 23.5-20.47 44.99-36.42 63.68-32.56 37.91-78.57 64.87-128.36 71.56-14.58 2.03-29.31 1.46-43.98 1.54-50.03.01-100.05 0-150.08.01-9.39.24-18.75-2.1-27.07-6.42-5.25-2.89-10.14-6.46-14.32-10.75-.57.04-1.7.11-2.26.15.37-.56.76-1.1 1.16-1.63-4.14-3.93-7.06-8.89-9.62-13.94-4.29-8.43-5.24-17.95-7.29-27.05-2.84-14.35-5.75-28.69-8.63-43.03-.98-5.27-1.87-10.73-4.76-15.36-3.98-6.94-11.13-11.99-19.02-13.35-7.69-1.63-16.09.86-21.73 6.31-4.27 3.94-6.71 9.54-7.57 15.22-2.34 19.09-4.99 38.15-7.39 57.24-.73 5.8-1.45 11.68-3.58 17.18-4.3 12.32-13.43 22.75-24.82 29.04-7.72 4.03-16.35 6.44-25.09 6.38-54.68 0-109.37.02-164.05-.01-21.79.31-43.29-7.77-60.23-21.34-9.88-8.24-18.45-18.11-24.63-29.43-5.08-9.36-8.74-19.52-10.59-30.02-3.2-19.81-5.4-39.78-7.66-59.72-.83-11.11-2.13-22.19-2.68-33.33-.93-11.24-1.57-22.52-1.94-33.8-1.11-15.99-.68-32.03-1.3-48.04.22-17.34.33-34.71.79-52.06.33-10.6 3.41-21.06 8.97-30.1 4.9-10.64 11.11-20.61 18.05-30.03 10.76-14.1 22.96-27.05 36.26-38.78 23.67-20.72 49.38-39.52 77.8-53.2 5.33-2.54 10.91-4.41 16.49-6.3 2.2-3.15 5.08-5.73 7.54-8.68 10.57-11.79 22.58-22.2 34.88-32.14 5.1-3.9 10.23-7.74 15.48-11.44 12.88-9.07 26.29-17.37 40.04-25.07 4.51-2.49 9.06-4.91 13.66-7.24 1.32-.71 2.65-1.42 3.98-2.13 1.32-.63 2.63-1.28 3.95-1.92 2.03-.99 4.07-1.98 6.1-2.97 4.3-2.07 8.62-4.1 12.96-6.1 5.07-2.29 10.19-4.45 15.31-6.62 1.87-.78 3.76-1.51 5.64-2.3 57.87-23.49 119.06-38.41 181-46m36.06 27.96c-54.69 3.79-108.95 14.17-161.14 31.04-18.11 6.05-36.05 12.63-53.58 20.22-13.53 5.89-26.93 12.11-39.94 19.08-19.26 10.2-37.85 21.67-55.4 34.59-7.93 5.91-15.45 12.33-23.03 18.68 4.69.5 9.41.23 14.12.3 31.67-.06 63.34.12 95-.09 3.12-2.03 5.38-5.23 8.36-7.51 14.82-13.3 31.44-24.44 48.87-34.03 9.66-5.2 19.56-9.95 29.66-14.23 9.54-4.05 19.25-7.68 29.06-11.01 24.77-8.41 50.27-14.62 76.02-19.2 36.64-6.43 73.84-9.8 111.06-9.5 45.02.05 90.6 3.09 134.02 15.78 6.02 1.88 12.02 3.83 17.88 6.18 4.87 2.03 9.8 3.97 14.44 6.52-.67-1.64-1.34-3.26-2.02-4.88-8.94-18.18-25.4-31.96-44.08-39.33-28.28-6.67-57.25-9.84-86.19-11.83-37.65-2.23-75.44-3.08-113.11-.78m274.36 45.42c7.46 19.69 10.79 40.75 11.09 61.76.07 14.65-2.73 29.19-7.24 43.1-2.83 8.7-6.1 17.25-9.64 25.68-.58 1.46-1.61 3.05-.71 4.62 6.06 13.9 9.43 28.76 12.64 43.53a492.39 492.39 0 0 1 8.51 61.16c.89 6.84.35 13.81 1.75 20.6 2.16-7.78 5.95-15 8.25-22.75 16.15-48.73 20.45-100.96 15.57-151.92-1.96-18.78-5.77-37.75-14.72-54.54-6.16-12.11-15.26-22.43-25.5-31.24m-244.12 15.86c-32.45 2.36-64.64 7.84-96.2 15.73l-.68.38c-23.33 5.97-46.17 13.95-68.08 23.95-3.79 1.76-7.57 3.55-11.27 5.5-9.97 5.08-19.6 10.82-28.97 16.92 4.68.25 9.37.11 14.06.15h334c10.12-.13 20.32.26 30.27 2.28 16.09 3.09 31.07 10.95 43.02 22.12 5.65-15.47 9.74-32.01 7.96-48.58-4.8-4.25-10.02-7.99-15.49-11.31-15.4-8.96-32.54-14.53-49.83-18.52-21.99-5.06-44.46-7.64-66.94-9.18-30.57-1.72-61.31-1.93-91.85.56M193.15 375.14c-12.25 7.12-24.03 15.04-35.33 23.59-1.55 1.15-3.08 2.32-4.61 3.49-6.94 5.36-13.66 10.98-20.2 16.82-6.88 6.51-14.15 12.72-20.06 20.16 195.35.13 390.7.01 586.05.06 22.93.14 44.15 16.34 51.88 37.66 3.07 7.65 3.72 15.94 4.73 24.04 1.38 10.58 2.4 21.21 3.55 31.82 5.27 56.24 7.13 112.94 2.48 169.29-.97 15.95-2.63 32.33-9.95 46.81-.06.48-.19 1.45-.25 1.93 2.19-1.62 4.58-2.93 7.02-4.15.13-.18.41-.54.54-.72 28.06-16.41 51.44-40.93 66.35-69.85 5.01-10.21 9.06-20.96 11.25-32.15 2.28-12.58 3.45-25.32 4.76-38.02 4.77-54.56 4.11-109.98-6.85-163.8-4.17-19.61-9.01-39.95-21.61-56.06-2.69 2.59-5.2 5.35-7.57 8.23-11.13 12.57-22.25 25.13-33.35 37.72-2.25 2.82-5.62 4.25-8.97 5.28-4.93.52-10.16-.98-13.54-4.72-4.26-4.01-4.85-10.35-3.76-15.8 1.23-2.42 2.57-4.81 4.43-6.8 11.95-13.11 23.33-26.75 35.38-39.78l-.07-.75c.4-.11 1.18-.32 1.57-.43-9.06-2.86-18.62-2.96-28.02-2.88-6.34 0-12.67-.01-19-.01-12.67.03-25.33.03-38 0-30 .02-60 .05-90 0-10.33.04-20.67.03-31 .01-19.67.01-39.33.03-59-.01-4 .03-8 .03-12 0-2.67.02-5.34.02-8 0-4.33.03-8.67.03-13 .01-24.33 0-48.66.03-72.99 0-16.01-.09-32.01.08-48.01-.01-4.34.03-8.67.03-13 0-7.67.04-15.34.03-23 .01-3.34.01-6.67.01-9.99 0-2.34 0-4.68 0-7.01-.01-33.68.07-67.36-.04-101.03.06-7.56 1.06-14.1 5.59-20.82 8.96m-94.27 95.58c-5.33 1.54-10.56 4.49-13.51 9.34-3.22 8.23-5.18 17.16-4.31 26.04-.29 2.97-1.09 5.88-1.22 8.87-1.09 66.19 2.59 132.5 12.45 197.99.93 6.31 2.84 12.44 5.43 18.26 10.42 22.26 33.41 38.75 58.27 39.24 53.67.11 107.33 0 161 .05 3.71.02 7.51.21 11.08-.98 8.4-2.42 14.9-10.02 16.22-18.63 2.7-20.6 5.38-41.21 8.04-61.81.56-5.5 1.95-10.89 3.98-16.02 6.38-16.17 20.88-28.85 37.83-32.84 13.03-3.34 27.07-1.39 39.08 4.51 15.91 8.12 27.84 23.6 31.42 41.14 4.27 21.24 8.51 42.49 12.81 63.73 2.39 11.36 12.86 20.52 24.55 20.89 55.99.01 111.99 0 167.99 0 9.03.02 17.94-2.3 26.09-6.12 11.64-5.92 21.28-15.52 27.22-27.16a66.313 66.313 0 0 0 6.63-24.4c7.02-71.51 3.4-143.67-5.56-214.83-.48-9.52-5.27-18.84-13.46-23.94-2.49-1.34-5.12-2.39-7.8-3.27-6-.7-12.05-.33-18.07-.41H112.08c-4.4.01-8.82-.16-13.2.35Z"/><path d="M487.97 508.94c5.22-5.63 16.55-3.97 18.69 3.84 9.51 31.39 19.27 62.71 28.47 94.19 9.93-31.65 19.23-63.5 29.09-95.18 2.32-5.94 10.41-7.76 15.72-4.81 4.76 2.25 6.39 8.42 4.53 13.11-12.46 41.39-25.23 82.69-37.81 124.04-1.35 4.45-4.96 8.61-9.75 9.27-2.38.41-4.73-.32-6.97-1.02-1.49-1.33-2.95-2.7-4.36-4.11-.98-2.13-1.76-4.35-2.38-6.6l-.35-.58c-1.78-6.45-3.97-12.77-5.68-19.23l-.36-.64c-7.16-23.79-14.5-47.51-21.7-71.29-3.05-9.66-5.89-19.39-8.94-29.05-1.33-3.92-1.27-8.84 1.8-11.94ZM618.06 507.66c16.1-2.53 33.36-4.19 48.77 2.36 12.66 4.95 23.06 16.01 25.98 29.44 1.89 9.86 1.38 20.45-2.58 29.78-3.63 7.77-9.34 14.82-17.16 18.66.32 1.02.67 2.06 1.05 3.08 1.82 3.61 3.43 7.33 5.18 10.99 4.58 10.29 9.35 20.49 14.02 30.74 1.73 4 4.14 7.92 4.03 12.43-1.42 7.78-11.58 10.8-17.6 6.29-3.47-2.3-4.6-6.48-6.31-10.01-6.88-14.98-13.64-30.01-20.59-44.95-7.69 1.5-15.41 3.1-23.29 3.06.02 14.46.04 28.92-.01 43.38.15 2.85-1.52 5.27-3.27 7.36-2.61 2.08-5.88 3.78-9.31 3.14-2.91-.31-5.17-2.3-7.33-4.06-1.15-2-2.42-4.06-2.25-6.45-.04-41.65-.03-83.31 0-124.96-.24-5.78 5.54-9.52 10.67-10.28m11.51 20.05c.04 16.96-.04 33.93.04 50.9 10.61-.96 21.72-2.28 30.96-8.03 12.06-6.91 15-25.35 5.32-35.46-3.01-2.76-6.41-5.16-10.3-6.47-8.38-3.13-17.38-1.87-26.02-.94Z"/></g></svg>