<?xml version="1.0" encoding="UTF-8" ?>
<!DOCTYPE svg PUBLIC "-//W3C//DTD SVG 1.1//EN" "http://www.w3.org/Graphics/SVG/1.1/DTD/svg11.dtd">
<svg width="980pt" height="980pt" viewBox="0 0 980 980" version="1.1" xmlns="http://www.w3.org/2000/svg">
<g id="#ffffffff">
</g>
<g id="#020202ff">
<path fill="#020202" opacity="1.00" d=" M 547.82 182.87 C 566.16 180.93 584.54 179.40 602.97 178.67 C 639.36 177.86 675.80 178.57 712.07 181.51 C 740.97 183.94 769.83 187.88 797.97 195.05 C 815.59 199.66 832.94 205.58 849.19 213.87 C 857.59 218.15 865.64 223.11 873.19 228.74 C 888.49 240.23 901.31 255.04 910.15 272.03 C 915.26 281.82 919.12 292.23 922.10 302.86 C 926.67 319.53 928.88 336.73 930.14 353.94 C 933.73 416.18 925.29 480.16 898.65 536.96 C 898.02 538.26 897.42 539.57 896.80 540.88 C 896.11 542.21 895.43 543.55 894.74 544.89 C 893.24 547.69 891.75 550.50 890.22 553.28 C 885.95 560.95 881.28 568.39 876.16 575.51 C 874.93 577.08 873.71 578.84 873.76 580.93 C 873.35 593.09 872.06 605.18 871.19 617.31 L 870.82 617.86 C 869.41 633.68 867.71 649.66 862.83 664.86 C 855.37 688.36 842.36 709.85 826.41 728.54 C 793.85 766.45 747.84 793.41 698.05 800.10 C 683.47 802.13 668.74 801.56 654.07 801.64 C 604.04 801.65 554.02 801.64 503.99 801.65 C 494.60 801.89 485.24 799.55 476.92 795.23 C 471.67 792.34 466.78 788.77 462.60 784.48 C 462.03 784.52 460.90 784.59 460.34 784.63 C 460.71 784.07 461.10 783.53 461.50 783.00 C 457.36 779.07 454.44 774.11 451.88 769.06 C 447.59 760.63 446.64 751.11 444.59 742.01 C 441.75 727.66 438.84 713.32 435.96 698.98 C 434.98 693.71 434.09 688.25 431.20 683.62 C 427.22 676.68 420.07 671.63 412.18 670.27 C 404.49 668.64 396.09 671.13 390.45 676.58 C 386.18 680.52 383.74 686.12 382.88 691.80 C 380.54 710.89 377.89 729.95 375.49 749.04 C 374.76 754.84 374.04 760.72 371.91 766.22 C 367.61 778.54 358.48 788.97 347.09 795.26 C 339.37 799.29 330.74 801.70 322.00 801.64 C 267.32 801.64 212.63 801.66 157.95 801.63 C 136.16 801.94 114.66 793.86 97.72 780.29 C 87.84 772.05 79.27 762.18 73.09 750.86 C 68.01 741.50 64.35 731.34 62.50 720.84 C 59.30 701.03 57.10 681.06 54.84 661.12 C 54.01 650.01 52.71 638.93 52.16 627.79 C 51.23 616.55 50.59 605.27 50.22 593.99 C 49.11 578.00 49.54 561.96 48.92 545.95 C 49.14 528.61 49.25 511.24 49.71 493.89 C 50.04 483.29 53.12 472.83 58.68 463.79 C 63.58 453.15 69.79 443.18 76.73 433.76 C 87.49 419.66 99.69 406.71 112.99 394.98 C 136.66 374.26 162.37 355.46 190.79 341.78 C 196.12 339.24 201.70 337.37 207.28 335.48 C 209.48 332.33 212.36 329.75 214.82 326.80 C 225.39 315.01 237.40 304.60 249.70 294.66 C 254.80 290.76 259.93 286.92 265.18 283.22 C 278.06 274.15 291.47 265.85 305.22 258.15 C 309.73 255.66 314.28 253.24 318.88 250.91 C 320.20 250.20 321.53 249.49 322.86 248.78 C 324.18 248.15 325.49 247.50 326.81 246.86 C 328.84 245.87 330.88 244.88 332.91 243.89 C 337.21 241.82 341.53 239.79 345.87 237.79 C 350.94 235.50 356.06 233.34 361.18 231.17 C 363.05 230.39 364.94 229.66 366.82 228.87 C 424.69 205.38 485.88 190.46 547.82 182.87 M 583.88 210.83 C 529.19 214.62 474.93 225.00 422.74 241.87 C 404.63 247.92 386.69 254.50 369.16 262.09 C 355.63 267.98 342.23 274.20 329.22 281.17 C 309.96 291.37 291.37 302.84 273.82 315.76 C 265.89 321.67 258.37 328.09 250.79 334.44 C 255.48 334.94 260.20 334.67 264.91 334.74 C 296.58 334.68 328.25 334.86 359.91 334.65 C 363.03 332.62 365.29 329.42 368.27 327.14 C 383.09 313.84 399.71 302.70 417.14 293.11 C 426.80 287.91 436.70 283.16 446.80 278.88 C 456.34 274.83 466.05 271.20 475.86 267.87 C 500.63 259.46 526.13 253.25 551.88 248.67 C 588.52 242.24 625.72 238.87 662.94 239.17 C 707.96 239.22 753.54 242.26 796.96 254.95 C 802.98 256.83 808.98 258.78 814.84 261.13 C 819.71 263.16 824.64 265.10 829.28 267.65 C 828.61 266.01 827.94 264.39 827.26 262.77 C 818.32 244.59 801.86 230.81 783.18 223.44 C 754.90 216.77 725.93 213.60 696.99 211.61 C 659.34 209.38 621.55 208.53 583.88 210.83 M 858.24 256.25 C 865.70 275.94 869.03 297.00 869.33 318.01 C 869.40 332.66 866.60 347.20 862.09 361.11 C 859.26 369.81 855.99 378.36 852.45 386.79 C 851.87 388.25 850.84 389.84 851.74 391.41 C 857.80 405.31 861.17 420.17 864.38 434.94 C 868.50 455.12 871.33 475.57 872.89 496.10 C 873.78 502.94 873.24 509.91 874.64 516.70 C 876.80 508.92 880.59 501.70 882.89 493.95 C 899.04 445.22 903.34 392.99 898.46 342.03 C 896.50 323.25 892.69 304.28 883.74 287.49 C 877.58 275.38 868.48 265.06 858.24 256.25 M 614.12 272.11 C 581.67 274.47 549.48 279.95 517.92 287.84 L 517.24 288.22 C 493.91 294.19 471.07 302.17 449.16 312.17 C 445.37 313.93 441.59 315.72 437.89 317.67 C 427.92 322.75 418.29 328.49 408.92 334.59 C 413.60 334.84 418.29 334.70 422.98 334.74 C 534.31 334.74 645.65 334.74 756.98 334.74 C 767.10 334.61 777.30 335.00 787.25 337.02 C 803.34 340.11 818.32 347.97 830.27 359.14 C 835.92 343.67 840.01 327.13 838.23 310.56 C 833.43 306.31 828.21 302.57 822.74 299.25 C 807.34 290.29 790.20 284.72 772.91 280.73 C 750.92 275.67 728.45 273.09 705.97 271.55 C 675.40 269.83 644.66 269.62 614.12 272.11 M 193.15 375.14 C 180.90 382.26 169.12 390.18 157.82 398.73 C 156.27 399.88 154.74 401.05 153.21 402.22 C 146.27 407.58 139.55 413.20 133.01 419.04 C 126.13 425.55 118.86 431.76 112.95 439.20 C 308.30 439.33 503.65 439.21 699.00 439.26 C 721.93 439.40 743.15 455.60 750.88 476.92 C 753.95 484.57 754.60 492.86 755.61 500.96 C 756.99 511.54 758.01 522.17 759.16 532.78 C 764.43 589.02 766.29 645.72 761.64 702.07 C 760.67 718.02 759.01 734.40 751.69 748.88 C 751.63 749.36 751.50 750.33 751.44 750.81 C 753.63 749.19 756.02 747.88 758.46 746.66 C 758.59 746.48 758.87 746.12 759.00 745.94 C 787.06 729.53 810.44 705.01 825.35 676.09 C 830.36 665.88 834.41 655.13 836.60 643.94 C 838.88 631.36 840.05 618.62 841.36 605.92 C 846.13 551.36 845.47 495.94 834.51 442.12 C 830.34 422.51 825.50 402.17 812.90 386.06 C 810.21 388.65 807.70 391.41 805.33 394.29 C 794.20 406.86 783.08 419.42 771.98 432.01 C 769.73 434.83 766.36 436.26 763.01 437.29 C 758.08 437.81 752.85 436.31 749.47 432.57 C 745.21 428.56 744.62 422.22 745.71 416.77 C 746.94 414.35 748.28 411.96 750.14 409.97 C 762.09 396.86 773.47 383.22 785.52 370.19 L 785.45 369.44 C 785.85 369.33 786.63 369.12 787.02 369.01 C 777.96 366.15 768.40 366.05 759.00 366.13 C 752.66 366.13 746.33 366.12 740.00 366.12 C 727.33 366.15 714.67 366.15 702.00 366.12 C 672.00 366.14 642.00 366.17 612.00 366.12 C 601.67 366.16 591.33 366.15 581.00 366.13 C 561.33 366.14 541.67 366.16 522.00 366.12 C 518.00 366.15 514.00 366.15 510.00 366.12 C 507.33 366.14 504.66 366.14 502.00 366.12 C 497.67 366.15 493.33 366.15 489.00 366.13 C 464.67 366.13 440.34 366.16 416.01 366.13 C 400.00 366.04 384.00 366.21 368.00 366.12 C 363.66 366.15 359.33 366.15 355.00 366.12 C 347.33 366.16 339.66 366.15 332.00 366.13 C 328.66 366.14 325.33 366.14 322.01 366.13 C 319.67 366.13 317.33 366.13 315.00 366.12 C 281.32 366.19 247.64 366.08 213.97 366.18 C 206.41 367.24 199.87 371.77 193.15 375.14 M 98.88 470.72 C 93.55 472.26 88.32 475.21 85.37 480.06 C 82.15 488.29 80.19 497.22 81.06 506.10 C 80.77 509.07 79.97 511.98 79.84 514.97 C 78.75 581.16 82.43 647.47 92.29 712.96 C 93.22 719.27 95.13 725.40 97.72 731.22 C 108.14 753.48 131.13 769.97 155.99 770.46 C 209.66 770.57 263.32 770.46 316.99 770.51 C 320.70 770.53 324.50 770.72 328.07 769.53 C 336.47 767.11 342.97 759.51 344.29 750.90 C 346.99 730.30 349.67 709.69 352.33 689.09 C 352.89 683.59 354.28 678.20 356.31 673.07 C 362.69 656.90 377.19 644.22 394.14 640.23 C 407.17 636.89 421.21 638.84 433.22 644.74 C 449.13 652.86 461.06 668.34 464.64 685.88 C 468.91 707.12 473.15 728.37 477.45 749.61 C 479.84 760.97 490.31 770.13 502.00 770.50 C 557.99 770.51 613.99 770.50 669.99 770.50 C 679.02 770.52 687.93 768.20 696.08 764.38 C 707.72 758.46 717.36 748.86 723.30 737.22 C 727.05 729.60 729.31 721.29 729.93 712.82 C 736.95 641.31 733.33 569.15 724.37 497.99 C 723.89 488.47 719.10 479.15 710.91 474.05 C 708.42 472.71 705.79 471.66 703.11 470.78 C 697.11 470.08 691.06 470.45 685.04 470.37 C 494.06 470.37 303.07 470.37 112.08 470.37 C 107.68 470.38 103.26 470.21 98.88 470.72 Z" />
<path fill="#020202" opacity="1.00" d=" M 487.97 508.94 C 493.19 503.31 504.52 504.97 506.66 512.78 C 516.17 544.17 525.93 575.49 535.13 606.97 C 545.06 575.32 554.36 543.47 564.22 511.79 C 566.54 505.85 574.63 504.03 579.94 506.98 C 584.70 509.23 586.33 515.40 584.47 520.09 C 572.01 561.48 559.24 602.78 546.66 644.13 C 545.31 648.58 541.70 652.74 536.91 653.40 C 534.53 653.81 532.18 653.08 529.94 652.38 C 528.45 651.05 526.99 649.68 525.58 648.27 C 524.60 646.14 523.82 643.92 523.20 641.67 L 522.85 641.09 C 521.07 634.64 518.88 628.32 517.17 621.86 L 516.81 621.22 C 509.65 597.43 502.31 573.71 495.11 549.93 C 492.06 540.27 489.22 530.54 486.17 520.88 C 484.84 516.96 484.90 512.04 487.97 508.94 Z" />
<path fill="#020202" opacity="1.00" d=" M 618.06 507.66 C 634.16 505.13 651.42 503.47 666.83 510.02 C 679.49 514.97 689.89 526.03 692.81 539.46 C 694.70 549.32 694.19 559.91 690.23 569.24 C 686.60 577.01 680.89 584.06 673.07 587.90 C 673.39 588.92 673.74 589.96 674.12 590.98 C 675.94 594.59 677.55 598.31 679.30 601.97 C 683.88 612.26 688.65 622.46 693.32 632.71 C 695.05 636.71 697.46 640.63 697.35 645.14 C 695.93 652.92 685.77 655.94 679.75 651.43 C 676.28 649.13 675.15 644.95 673.44 641.42 C 666.56 626.44 659.80 611.41 652.85 596.47 C 645.16 597.97 637.44 599.57 629.56 599.53 C 629.58 613.99 629.60 628.45 629.55 642.91 C 629.70 645.76 628.03 648.18 626.28 650.27 C 623.67 652.35 620.40 654.05 616.97 653.41 C 614.06 653.10 611.80 651.11 609.64 649.35 C 608.49 647.35 607.22 645.29 607.39 642.90 C 607.35 601.25 607.36 559.59 607.39 517.94 C 607.15 512.16 612.93 508.42 618.06 507.66 M 629.57 527.71 C 629.61 544.67 629.53 561.64 629.61 578.61 C 640.22 577.65 651.33 576.33 660.57 570.58 C 672.63 563.67 675.57 545.23 665.89 535.12 C 662.88 532.36 659.48 529.96 655.59 528.65 C 647.21 525.52 638.21 526.78 629.57 527.71 Z" />
</g>
</svg>
